<?xml version="1.0" encoding="UTF-8" standalone="no"?>
<!DOCTYPE svg PUBLIC "-//W3C//DTD SVG 1.1//EN" "http://www.w3.org/Graphics/SVG/1.1/DTD/svg11.dtd">
<svg width="100%" height="100%" viewBox="0 0 696 593" version="1.1" xmlns="http://www.w3.org/2000/svg" xmlns:xlink="http://www.w3.org/1999/xlink" xml:space="preserve" xmlns:serif="http://www.serif.com/" style="fill-rule:evenodd;clip-rule:evenodd;stroke-linecap:round;">
    <g transform="matrix(1,0,0,1,-1.85484,-1.85544)">
        <g transform="matrix(1,0,0,1,-180.934,-326.48)">
            <path d="M713.988,822.568L713.986,822.626L713.796,822.761L713.549,822.572L713.018,822.235L710.335,820.535L707.711,819.254L707.21,819.009L706.733,818.851L704.192,818.011L703.743,817.939L701.305,817.551L698.989,817.623L698.568,817.636L696.394,818.172L696,818.269L695.637,818.449L693.619,819.444L691.776,820.89L691.439,821.154L689.782,823.037L689.475,823.385L688.014,825.684L687.737,826.118L687.497,826.635L686.237,829.331L684.979,832.996L683.968,837.084L683.208,841.561L683.115,842.438L682.698,846.392L682.434,851.539L682.431,852.606L682.414,856.965L682.458,858.126L682.632,862.629L682.981,867.226L683.077,868.493L683.227,869.842L683.745,874.518L683.951,875.957L684.622,880.666L685.433,885.363L685.699,886.899L686.636,891.565L686.961,893.182L687.346,894.869L688.399,899.482L689.548,904.003L689.997,905.766L691.232,910.18L691.742,912.006L693.05,916.293L693.623,918.173L694.395,920.51L182.995,882.212L193.955,328.542L263.365,333.741L739.85,369.424L739.851,369.407L877.876,359.185L872.088,685.108L868.099,909.651L763.581,917.114L763.745,915.702L763.863,914.291L764.115,911.264L764.279,908.133L764.352,906.728L764.382,905.336L764.451,902.109L764.439,900.735L764.408,897.422L764.273,894.033L764.219,892.686L764.126,891.367L763.882,887.918L763.526,884.418L763.397,883.138L763.23,881.896L762.758,878.367L762.558,877.17L761.967,873.625L761.254,870.079L761.023,868.936L760.187,865.41L759.927,864.321L758.967,860.837L758.681,859.805L758.372,858.825L757.289,855.41L756.081,852.075L755.752,851.163L754.424,847.934L754.075,847.086L753.706,846.295L752.266,843.203L750.71,840.259L750.329,839.54L748.666,836.772L748.274,836.118L747.869,835.526L746.109,832.96L744.256,830.608L743.844,830.086L743.423,829.627L741.491,827.517L741.064,827.123L739.06,825.27L736.992,823.688L736.565,823.362L736.133,823.098L734.018,821.805L733.586,821.605L731.435,820.611L731.003,820.475L728.828,819.79L726.642,819.421L726.214,819.348L725.786,819.338L723.606,819.288L721.441,819.558L721.019,819.611L720.6,819.726L718.467,820.314L718.055,820.492L715.967,821.394L713.988,822.568Z" style="fill:none;stroke:black;stroke-width:0.1px;"/>
        </g>
    </g>
</svg>
