G75*
%MOIN*%
%OFA0B0*%
%FSLAX24Y24*%
%IPPOS*%
%LPD*%
%AMOC8*
5,1,8,0,0,1.08239X$1,22.5*
%
%ADD10R,0.0269X0.0128*%
%ADD11R,0.0128X0.0269*%
%ADD12R,0.0269X0.0128*%
%ADD13R,0.1367X0.1367*%
%ADD14R,0.0118X0.0118*%
%ADD15R,0.0472X0.0472*%
%ADD16R,0.0276X0.0354*%
%ADD17R,0.0709X0.0630*%
%ADD18R,0.0472X0.0315*%
%ADD19R,0.0354X0.0394*%
%ADD20R,0.0244X0.0480*%
%ADD21R,0.0669X0.0315*%
%ADD22R,0.0472X0.0197*%
%ADD23R,0.0197X0.0472*%
%ADD24R,0.0394X0.0433*%
%ADD25R,0.0610X0.0236*%
%ADD26R,0.0354X0.0315*%
%ADD27R,0.0130X0.0142*%
%ADD28R,0.0142X0.0130*%
%ADD29R,0.0354X0.0276*%
%ADD30R,0.0280X0.0500*%
%ADD31R,0.0400X0.0280*%
%ADD32R,0.0433X0.0236*%
%ADD33R,0.0433X0.0276*%
D10*
X007118Y010178D03*
X007118Y010434D03*
X007118Y010689D03*
X007118Y010945D03*
X007118Y011201D03*
X007118Y011457D03*
X007118Y011713D03*
D11*
X007414Y012009D03*
X007670Y012009D03*
X007926Y012009D03*
X008182Y012009D03*
X008438Y012009D03*
X008693Y012009D03*
X008949Y012009D03*
X008949Y009882D03*
X008693Y009882D03*
X008438Y009882D03*
X008182Y009882D03*
X007926Y009882D03*
X007670Y009882D03*
X007414Y009882D03*
D12*
X009245Y010178D03*
X009245Y010434D03*
X009245Y010689D03*
X009245Y010945D03*
X009245Y011201D03*
X009245Y011457D03*
X009245Y011713D03*
D13*
X008182Y010945D03*
D14*
X008171Y012542D03*
X007935Y012587D03*
X007699Y012587D03*
X008407Y012542D03*
X006474Y012209D03*
X006474Y011972D03*
X006411Y011766D03*
X006411Y011530D03*
X009712Y008920D03*
X009712Y008684D03*
X010418Y010609D03*
X010654Y010609D03*
X003129Y005680D03*
X003129Y005444D03*
D15*
X010048Y011181D03*
X010049Y011749D03*
X010047Y012318D03*
X010874Y012318D03*
X010876Y011749D03*
X010874Y011181D03*
D16*
X011386Y010859D03*
X011898Y010859D03*
X012137Y010291D03*
X011625Y010291D03*
X010497Y009776D03*
X009985Y009776D03*
X009337Y005888D03*
X008825Y005888D03*
D17*
X004265Y004148D03*
X004265Y005251D03*
D18*
X003194Y005120D03*
X003194Y004411D03*
X001390Y004677D03*
X001390Y005386D03*
X004567Y009647D03*
X004567Y010355D03*
D19*
X005543Y010029D03*
X006153Y010029D03*
X006153Y009301D03*
X005543Y009301D03*
D20*
X002673Y005494D03*
X002299Y005494D03*
X001925Y005494D03*
X001925Y004470D03*
X002299Y004470D03*
X002673Y004470D03*
D21*
X011754Y011314D03*
X011754Y012652D03*
D22*
X011936Y009577D03*
X011936Y009262D03*
X011936Y008947D03*
X011936Y008632D03*
X011936Y008317D03*
X011936Y008002D03*
X011070Y008002D03*
X011070Y008317D03*
X011070Y008632D03*
X011070Y008947D03*
X011070Y009262D03*
X011070Y009577D03*
D23*
X011503Y009616D03*
X011503Y007963D03*
D24*
X010451Y008149D03*
X010451Y007480D03*
D25*
X009159Y007683D03*
X009159Y008183D03*
X009159Y008683D03*
X009159Y009183D03*
X007033Y009183D03*
X007033Y008683D03*
X007033Y008183D03*
X007033Y007683D03*
D26*
X005912Y011144D03*
X005912Y011696D03*
X005006Y011696D03*
X005006Y011144D03*
D27*
X005074Y010179D03*
X005074Y009958D03*
X006841Y009840D03*
X006841Y009620D03*
X010095Y010296D03*
X010095Y010516D03*
X011099Y010223D03*
X011099Y010003D03*
D28*
X008443Y009605D03*
X008223Y009605D03*
D29*
X008321Y005744D03*
X008321Y005232D03*
D30*
X008281Y004558D03*
X009381Y004558D03*
D31*
X009871Y004993D03*
X009871Y005723D03*
D32*
X010658Y005794D03*
X010658Y006582D03*
X011524Y006582D03*
X011524Y005794D03*
D33*
X011524Y006188D03*
X010658Y006188D03*
M02*
