G75*
%MOIN*%
%OFA0B0*%
%FSLAX24Y24*%
%IPPOS*%
%LPD*%
%AMOC8*
5,1,8,0,0,1.08239X$1,22.5*
%
%ADD10R,0.1167X0.1166*%
%ADD11R,0.0842X0.1376*%
%ADD12R,0.0842X0.1376*%
%ADD13C,0.0028*%
%ADD14C,0.0291*%
%ADD15R,0.0118X0.0118*%
%ADD16R,0.0472X0.0472*%
%ADD17R,0.0276X0.0354*%
%ADD18R,0.0709X0.0630*%
%ADD19R,0.0472X0.0315*%
%ADD20R,0.0354X0.0394*%
%ADD21R,0.0244X0.0480*%
%ADD22R,0.0669X0.0315*%
%ADD23R,0.0472X0.0197*%
%ADD24R,0.0197X0.0472*%
%ADD25R,0.0394X0.0433*%
%ADD26R,0.0610X0.0236*%
%ADD27C,0.0437*%
%ADD28R,0.0354X0.0315*%
%ADD29R,0.0130X0.0142*%
%ADD30R,0.0142X0.0130*%
%ADD31R,0.0354X0.0276*%
%ADD32C,0.0886*%
%ADD33R,0.0280X0.0500*%
%ADD34R,0.0400X0.0280*%
%ADD35R,0.0433X0.0236*%
%ADD36R,0.0433X0.0276*%
%ADD37C,0.0060*%
%ADD38C,0.0100*%
%ADD39C,0.0240*%
%ADD40C,0.0160*%
%ADD41C,0.0120*%
%ADD42C,0.0180*%
%ADD43C,0.0050*%
%ADD44C,0.0320*%
%ADD45C,0.0240*%
%ADD46C,0.0080*%
%ADD47C,0.0250*%
D10*
X009258Y002049D03*
X009248Y003529D03*
X011648Y003499D03*
X011648Y001979D03*
D11*
X002505Y007992D03*
D12*
X003478Y007992D03*
X003474Y010138D03*
X002497Y010138D03*
X004261Y013232D03*
X005236Y013230D03*
D13*
X006995Y011658D02*
X007243Y011658D01*
X006995Y011658D02*
X006995Y011768D01*
X007243Y011768D01*
X007243Y011658D01*
X007243Y011685D02*
X006995Y011685D01*
X006995Y011712D02*
X007243Y011712D01*
X007243Y011739D02*
X006995Y011739D01*
X006995Y011766D02*
X007243Y011766D01*
X007359Y011884D02*
X007469Y011884D01*
X007359Y011884D02*
X007359Y012132D01*
X007469Y012132D01*
X007469Y011884D01*
X007469Y011911D02*
X007359Y011911D01*
X007359Y011938D02*
X007469Y011938D01*
X007469Y011965D02*
X007359Y011965D01*
X007359Y011992D02*
X007469Y011992D01*
X007469Y012019D02*
X007359Y012019D01*
X007359Y012046D02*
X007469Y012046D01*
X007469Y012073D02*
X007359Y012073D01*
X007359Y012100D02*
X007469Y012100D01*
X007469Y012127D02*
X007359Y012127D01*
X007615Y011884D02*
X007725Y011884D01*
X007615Y011884D02*
X007615Y012132D01*
X007725Y012132D01*
X007725Y011884D01*
X007725Y011911D02*
X007615Y011911D01*
X007615Y011938D02*
X007725Y011938D01*
X007725Y011965D02*
X007615Y011965D01*
X007615Y011992D02*
X007725Y011992D01*
X007725Y012019D02*
X007615Y012019D01*
X007615Y012046D02*
X007725Y012046D01*
X007725Y012073D02*
X007615Y012073D01*
X007615Y012100D02*
X007725Y012100D01*
X007725Y012127D02*
X007615Y012127D01*
X007871Y011884D02*
X007981Y011884D01*
X007871Y011884D02*
X007871Y012132D01*
X007981Y012132D01*
X007981Y011884D01*
X007981Y011911D02*
X007871Y011911D01*
X007871Y011938D02*
X007981Y011938D01*
X007981Y011965D02*
X007871Y011965D01*
X007871Y011992D02*
X007981Y011992D01*
X007981Y012019D02*
X007871Y012019D01*
X007871Y012046D02*
X007981Y012046D01*
X007981Y012073D02*
X007871Y012073D01*
X007871Y012100D02*
X007981Y012100D01*
X007981Y012127D02*
X007871Y012127D01*
X008127Y011884D02*
X008237Y011884D01*
X008127Y011884D02*
X008127Y012132D01*
X008237Y012132D01*
X008237Y011884D01*
X008237Y011911D02*
X008127Y011911D01*
X008127Y011938D02*
X008237Y011938D01*
X008237Y011965D02*
X008127Y011965D01*
X008127Y011992D02*
X008237Y011992D01*
X008237Y012019D02*
X008127Y012019D01*
X008127Y012046D02*
X008237Y012046D01*
X008237Y012073D02*
X008127Y012073D01*
X008127Y012100D02*
X008237Y012100D01*
X008237Y012127D02*
X008127Y012127D01*
X008383Y011884D02*
X008493Y011884D01*
X008383Y011884D02*
X008383Y012132D01*
X008493Y012132D01*
X008493Y011884D01*
X008493Y011911D02*
X008383Y011911D01*
X008383Y011938D02*
X008493Y011938D01*
X008493Y011965D02*
X008383Y011965D01*
X008383Y011992D02*
X008493Y011992D01*
X008493Y012019D02*
X008383Y012019D01*
X008383Y012046D02*
X008493Y012046D01*
X008493Y012073D02*
X008383Y012073D01*
X008383Y012100D02*
X008493Y012100D01*
X008493Y012127D02*
X008383Y012127D01*
X008638Y011884D02*
X008748Y011884D01*
X008638Y011884D02*
X008638Y012132D01*
X008748Y012132D01*
X008748Y011884D01*
X008748Y011911D02*
X008638Y011911D01*
X008638Y011938D02*
X008748Y011938D01*
X008748Y011965D02*
X008638Y011965D01*
X008638Y011992D02*
X008748Y011992D01*
X008748Y012019D02*
X008638Y012019D01*
X008638Y012046D02*
X008748Y012046D01*
X008748Y012073D02*
X008638Y012073D01*
X008638Y012100D02*
X008748Y012100D01*
X008748Y012127D02*
X008638Y012127D01*
X008894Y011884D02*
X009004Y011884D01*
X008894Y011884D02*
X008894Y012132D01*
X009004Y012132D01*
X009004Y011884D01*
X009004Y011911D02*
X008894Y011911D01*
X008894Y011938D02*
X009004Y011938D01*
X009004Y011965D02*
X008894Y011965D01*
X008894Y011992D02*
X009004Y011992D01*
X009004Y012019D02*
X008894Y012019D01*
X008894Y012046D02*
X009004Y012046D01*
X009004Y012073D02*
X008894Y012073D01*
X008894Y012100D02*
X009004Y012100D01*
X009004Y012127D02*
X008894Y012127D01*
X009121Y011658D02*
X009369Y011658D01*
X009121Y011658D02*
X009121Y011768D01*
X009369Y011768D01*
X009369Y011658D01*
X009369Y011685D02*
X009121Y011685D01*
X009121Y011712D02*
X009369Y011712D01*
X009369Y011739D02*
X009121Y011739D01*
X009121Y011766D02*
X009369Y011766D01*
X009369Y011402D02*
X009121Y011402D01*
X009121Y011512D01*
X009369Y011512D01*
X009369Y011402D01*
X009369Y011429D02*
X009121Y011429D01*
X009121Y011456D02*
X009369Y011456D01*
X009369Y011483D02*
X009121Y011483D01*
X009121Y011510D02*
X009369Y011510D01*
X009369Y011146D02*
X009121Y011146D01*
X009121Y011256D01*
X009369Y011256D01*
X009369Y011146D01*
X009369Y011173D02*
X009121Y011173D01*
X009121Y011200D02*
X009369Y011200D01*
X009369Y011227D02*
X009121Y011227D01*
X009121Y011254D02*
X009369Y011254D01*
X009369Y010890D02*
X009121Y010890D01*
X009121Y011000D01*
X009369Y011000D01*
X009369Y010890D01*
X009369Y010917D02*
X009121Y010917D01*
X009121Y010944D02*
X009369Y010944D01*
X009369Y010971D02*
X009121Y010971D01*
X009121Y010998D02*
X009369Y010998D01*
X009369Y010634D02*
X009121Y010634D01*
X009121Y010744D01*
X009369Y010744D01*
X009369Y010634D01*
X009369Y010661D02*
X009121Y010661D01*
X009121Y010688D02*
X009369Y010688D01*
X009369Y010715D02*
X009121Y010715D01*
X009121Y010742D02*
X009369Y010742D01*
X009369Y010379D02*
X009121Y010379D01*
X009121Y010489D01*
X009369Y010489D01*
X009369Y010379D01*
X009369Y010406D02*
X009121Y010406D01*
X009121Y010433D02*
X009369Y010433D01*
X009369Y010460D02*
X009121Y010460D01*
X009121Y010487D02*
X009369Y010487D01*
X009369Y010123D02*
X009121Y010123D01*
X009121Y010233D01*
X009369Y010233D01*
X009369Y010123D01*
X009369Y010150D02*
X009121Y010150D01*
X009121Y010177D02*
X009369Y010177D01*
X009369Y010204D02*
X009121Y010204D01*
X009121Y010231D02*
X009369Y010231D01*
X009004Y009758D02*
X008894Y009758D01*
X008894Y010006D01*
X009004Y010006D01*
X009004Y009758D01*
X009004Y009785D02*
X008894Y009785D01*
X008894Y009812D02*
X009004Y009812D01*
X009004Y009839D02*
X008894Y009839D01*
X008894Y009866D02*
X009004Y009866D01*
X009004Y009893D02*
X008894Y009893D01*
X008894Y009920D02*
X009004Y009920D01*
X009004Y009947D02*
X008894Y009947D01*
X008894Y009974D02*
X009004Y009974D01*
X009004Y010001D02*
X008894Y010001D01*
X008748Y009758D02*
X008638Y009758D01*
X008638Y010006D01*
X008748Y010006D01*
X008748Y009758D01*
X008748Y009785D02*
X008638Y009785D01*
X008638Y009812D02*
X008748Y009812D01*
X008748Y009839D02*
X008638Y009839D01*
X008638Y009866D02*
X008748Y009866D01*
X008748Y009893D02*
X008638Y009893D01*
X008638Y009920D02*
X008748Y009920D01*
X008748Y009947D02*
X008638Y009947D01*
X008638Y009974D02*
X008748Y009974D01*
X008748Y010001D02*
X008638Y010001D01*
X008493Y009758D02*
X008383Y009758D01*
X008383Y010006D01*
X008493Y010006D01*
X008493Y009758D01*
X008493Y009785D02*
X008383Y009785D01*
X008383Y009812D02*
X008493Y009812D01*
X008493Y009839D02*
X008383Y009839D01*
X008383Y009866D02*
X008493Y009866D01*
X008493Y009893D02*
X008383Y009893D01*
X008383Y009920D02*
X008493Y009920D01*
X008493Y009947D02*
X008383Y009947D01*
X008383Y009974D02*
X008493Y009974D01*
X008493Y010001D02*
X008383Y010001D01*
X008237Y009758D02*
X008127Y009758D01*
X008127Y010006D01*
X008237Y010006D01*
X008237Y009758D01*
X008237Y009785D02*
X008127Y009785D01*
X008127Y009812D02*
X008237Y009812D01*
X008237Y009839D02*
X008127Y009839D01*
X008127Y009866D02*
X008237Y009866D01*
X008237Y009893D02*
X008127Y009893D01*
X008127Y009920D02*
X008237Y009920D01*
X008237Y009947D02*
X008127Y009947D01*
X008127Y009974D02*
X008237Y009974D01*
X008237Y010001D02*
X008127Y010001D01*
X007981Y009758D02*
X007871Y009758D01*
X007871Y010006D01*
X007981Y010006D01*
X007981Y009758D01*
X007981Y009785D02*
X007871Y009785D01*
X007871Y009812D02*
X007981Y009812D01*
X007981Y009839D02*
X007871Y009839D01*
X007871Y009866D02*
X007981Y009866D01*
X007981Y009893D02*
X007871Y009893D01*
X007871Y009920D02*
X007981Y009920D01*
X007981Y009947D02*
X007871Y009947D01*
X007871Y009974D02*
X007981Y009974D01*
X007981Y010001D02*
X007871Y010001D01*
X007725Y009758D02*
X007615Y009758D01*
X007615Y010006D01*
X007725Y010006D01*
X007725Y009758D01*
X007725Y009785D02*
X007615Y009785D01*
X007615Y009812D02*
X007725Y009812D01*
X007725Y009839D02*
X007615Y009839D01*
X007615Y009866D02*
X007725Y009866D01*
X007725Y009893D02*
X007615Y009893D01*
X007615Y009920D02*
X007725Y009920D01*
X007725Y009947D02*
X007615Y009947D01*
X007615Y009974D02*
X007725Y009974D01*
X007725Y010001D02*
X007615Y010001D01*
X007469Y009758D02*
X007359Y009758D01*
X007359Y010006D01*
X007469Y010006D01*
X007469Y009758D01*
X007469Y009785D02*
X007359Y009785D01*
X007359Y009812D02*
X007469Y009812D01*
X007469Y009839D02*
X007359Y009839D01*
X007359Y009866D02*
X007469Y009866D01*
X007469Y009893D02*
X007359Y009893D01*
X007359Y009920D02*
X007469Y009920D01*
X007469Y009947D02*
X007359Y009947D01*
X007359Y009974D02*
X007469Y009974D01*
X007469Y010001D02*
X007359Y010001D01*
X007243Y010123D02*
X006995Y010123D01*
X006995Y010233D01*
X007243Y010233D01*
X007243Y010123D01*
X007243Y010150D02*
X006995Y010150D01*
X006995Y010177D02*
X007243Y010177D01*
X007243Y010204D02*
X006995Y010204D01*
X006995Y010231D02*
X007243Y010231D01*
X007243Y010379D02*
X006995Y010379D01*
X006995Y010489D01*
X007243Y010489D01*
X007243Y010379D01*
X007243Y010406D02*
X006995Y010406D01*
X006995Y010433D02*
X007243Y010433D01*
X007243Y010460D02*
X006995Y010460D01*
X006995Y010487D02*
X007243Y010487D01*
X007243Y010634D02*
X006995Y010634D01*
X006995Y010744D01*
X007243Y010744D01*
X007243Y010634D01*
X007243Y010661D02*
X006995Y010661D01*
X006995Y010688D02*
X007243Y010688D01*
X007243Y010715D02*
X006995Y010715D01*
X006995Y010742D02*
X007243Y010742D01*
X007243Y010890D02*
X006995Y010890D01*
X006995Y011000D01*
X007243Y011000D01*
X007243Y010890D01*
X007243Y010917D02*
X006995Y010917D01*
X006995Y010944D02*
X007243Y010944D01*
X007243Y010971D02*
X006995Y010971D01*
X006995Y010998D02*
X007243Y010998D01*
X007243Y011146D02*
X006995Y011146D01*
X006995Y011256D01*
X007243Y011256D01*
X007243Y011146D01*
X007243Y011173D02*
X006995Y011173D01*
X006995Y011200D02*
X007243Y011200D01*
X007243Y011227D02*
X006995Y011227D01*
X006995Y011254D02*
X007243Y011254D01*
X007243Y011402D02*
X006995Y011402D01*
X006995Y011512D01*
X007243Y011512D01*
X007243Y011402D01*
X007243Y011429D02*
X006995Y011429D01*
X006995Y011456D02*
X007243Y011456D01*
X007243Y011483D02*
X006995Y011483D01*
X006995Y011510D02*
X007243Y011510D01*
D14*
X007599Y010362D02*
X008765Y010362D01*
X007599Y010362D02*
X007599Y011528D01*
X008765Y011528D01*
X008765Y010362D01*
X008765Y010652D02*
X007599Y010652D01*
X007599Y010942D02*
X008765Y010942D01*
X008765Y011232D02*
X007599Y011232D01*
X007599Y011522D02*
X008765Y011522D01*
D15*
X008407Y012542D03*
X008171Y012542D03*
X007935Y012587D03*
X007699Y012587D03*
X006474Y012209D03*
X006474Y011972D03*
X006411Y011766D03*
X006411Y011530D03*
X009712Y008920D03*
X009712Y008684D03*
X010418Y010609D03*
X010654Y010609D03*
X003129Y005680D03*
X003129Y005444D03*
D16*
X010048Y011181D03*
X010049Y011749D03*
X010047Y012318D03*
X010874Y012318D03*
X010876Y011749D03*
X010874Y011181D03*
D17*
X011386Y010859D03*
X011898Y010859D03*
X012137Y010291D03*
X011625Y010291D03*
X010497Y009776D03*
X009985Y009776D03*
X009337Y005888D03*
X008825Y005888D03*
D18*
X004265Y005251D03*
X004265Y004148D03*
D19*
X003194Y004411D03*
X003194Y005120D03*
X001390Y005386D03*
X001390Y004677D03*
X004567Y009647D03*
X004567Y010355D03*
D20*
X005543Y010029D03*
X006153Y010029D03*
X006153Y009301D03*
X005543Y009301D03*
D21*
X002673Y005494D03*
X002299Y005494D03*
X001925Y005494D03*
X001925Y004470D03*
X002299Y004470D03*
X002673Y004470D03*
D22*
X011754Y011314D03*
X011754Y012652D03*
D23*
X011936Y009577D03*
X011936Y009262D03*
X011936Y008947D03*
X011936Y008632D03*
X011936Y008317D03*
X011936Y008002D03*
X011070Y008002D03*
X011070Y008317D03*
X011070Y008632D03*
X011070Y008947D03*
X011070Y009262D03*
X011070Y009577D03*
D24*
X011503Y009616D03*
X011503Y007963D03*
D25*
X010451Y008149D03*
X010451Y007480D03*
D26*
X009159Y007683D03*
X009159Y008183D03*
X009159Y008683D03*
X009159Y009183D03*
X007033Y009183D03*
X007033Y008683D03*
X007033Y008183D03*
X007033Y007683D03*
D27*
X002501Y012146D02*
X002064Y012146D01*
X002064Y012638D02*
X002501Y012638D01*
X002501Y013130D02*
X002064Y013130D01*
X002064Y013622D02*
X002501Y013622D01*
X006777Y013619D02*
X006777Y013183D01*
X007269Y013183D02*
X007269Y013619D01*
X007761Y013619D02*
X007761Y013183D01*
X008253Y013183D02*
X008253Y013619D01*
X008745Y013619D02*
X008745Y013183D01*
X010111Y013183D02*
X010111Y013619D01*
X010603Y013619D02*
X010603Y013183D01*
X011095Y013183D02*
X011095Y013619D01*
X011587Y013619D02*
X011587Y013183D01*
D28*
X005912Y011696D03*
X005912Y011144D03*
X005006Y011144D03*
X005006Y011696D03*
D29*
X005074Y010179D03*
X005074Y009958D03*
X006841Y009840D03*
X006841Y009620D03*
X010095Y010296D03*
X010095Y010516D03*
X011099Y010223D03*
X011099Y010003D03*
D30*
X008443Y009605D03*
X008223Y009605D03*
D31*
X008321Y005744D03*
X008321Y005232D03*
D32*
X001752Y001538D03*
X004970Y001542D03*
D33*
X008281Y004558D03*
X009381Y004558D03*
D34*
X009871Y004993D03*
X009871Y005723D03*
D35*
X010658Y005794D03*
X010658Y006582D03*
X011524Y006582D03*
X011524Y005794D03*
D36*
X011524Y006188D03*
X010658Y006188D03*
D37*
X009159Y008183D02*
X008874Y008204D01*
X008649Y008426D01*
X008534Y008540D01*
X008532Y009343D01*
X008949Y009760D01*
X008949Y009882D01*
X008949Y009806D01*
X008954Y009878D02*
X008949Y009882D01*
X009191Y009888D02*
X009191Y010124D01*
X009245Y010178D01*
X009677Y009970D02*
X009681Y009970D01*
X009677Y009970D02*
X009819Y010112D01*
X009819Y010280D01*
X010070Y010282D01*
X010095Y010296D01*
X010392Y010321D02*
X010392Y010324D01*
X010435Y010324D01*
X010650Y010539D01*
X010654Y010609D01*
X010729Y010798D02*
X010571Y010798D01*
X010471Y010898D01*
X010471Y011608D01*
X010611Y011748D01*
X010875Y011748D01*
X010876Y011749D01*
X010882Y011755D01*
X010874Y012318D02*
X010791Y012314D01*
X010602Y012638D01*
X010889Y012805D02*
X011242Y012805D01*
X011394Y012652D01*
X011754Y012652D01*
X011685Y011994D02*
X011751Y011928D01*
X010619Y013104D02*
X010619Y013780D01*
X010231Y014168D01*
X003273Y014168D01*
X003239Y014202D01*
X003205Y014126D01*
X003655Y013925D02*
X003655Y013441D01*
X003655Y013925D02*
X003777Y014046D01*
X009441Y014047D01*
X010085Y013404D01*
X010094Y013395D01*
X010085Y013404D02*
X009983Y013404D01*
X008691Y012112D01*
X008441Y012108D02*
X008441Y012012D01*
X008438Y012008D01*
X008441Y012108D02*
X008745Y012412D01*
X008745Y013401D01*
X008253Y013401D02*
X008241Y013413D01*
X008171Y013343D01*
X008171Y012542D01*
X007935Y012587D02*
X007935Y013227D01*
X007761Y013401D01*
X008240Y013388D02*
X008253Y013401D01*
X007935Y012587D02*
X007935Y012018D01*
X007926Y012008D01*
X007920Y012014D01*
X008161Y012029D02*
X008182Y012008D01*
X008171Y012008D02*
X008181Y011988D01*
X008182Y012278D01*
X008161Y012029D02*
X008171Y012008D01*
X007671Y012010D02*
X007670Y012008D01*
X007661Y012017D01*
X007661Y012118D01*
X007358Y012422D01*
X006649Y012422D01*
X006474Y012247D01*
X006474Y012209D01*
X006425Y012209D01*
X005912Y011696D01*
X005505Y011880D02*
X005324Y012061D01*
X003670Y012061D01*
X003171Y012560D01*
X003171Y013356D01*
X002880Y013647D01*
X002607Y013647D01*
X002283Y013622D01*
X002283Y012651D02*
X002283Y012638D01*
X002283Y012651D02*
X002847Y012651D01*
X003169Y012329D01*
X003169Y012013D01*
X004424Y010758D01*
X006421Y010758D01*
X006571Y010908D01*
X006571Y011348D01*
X006936Y011713D01*
X007119Y011713D01*
X007114Y011708D01*
X007108Y011468D02*
X007119Y011457D01*
X006980Y011457D01*
X006721Y011198D01*
X006721Y010808D01*
X006541Y010628D01*
X004314Y010626D01*
X002771Y012169D01*
X002306Y012169D01*
X002283Y012146D01*
X004567Y010355D02*
X004689Y010478D01*
X006671Y010478D01*
X006861Y010668D01*
X006861Y011118D01*
X006941Y011198D01*
X007116Y011198D01*
X007119Y011201D01*
X007119Y010689D02*
X007030Y010689D01*
X007114Y010438D02*
X007119Y010434D01*
X006916Y010434D01*
X006831Y010348D01*
X005862Y010348D01*
X005543Y010029D01*
X005207Y009647D02*
X004567Y009647D01*
X005207Y009647D02*
X005543Y009301D01*
X005100Y008858D01*
X005071Y008858D01*
X005543Y009301D02*
X006143Y009901D01*
X006153Y010029D01*
X006692Y009840D02*
X006841Y009840D01*
X006826Y009856D02*
X006831Y009861D01*
X006831Y009890D01*
X007119Y010178D01*
X007141Y009888D02*
X007161Y009868D01*
X007400Y009868D01*
X007414Y009882D01*
X007670Y009882D02*
X007670Y009419D01*
X007575Y009449D01*
X007909Y009551D02*
X007928Y009554D01*
X007926Y009882D01*
X008181Y009882D02*
X008182Y009882D01*
X008191Y009873D01*
X008191Y009622D01*
X008205Y009608D01*
X008223Y009605D01*
X008443Y009605D02*
X008445Y009558D01*
X008445Y009478D01*
X008148Y009182D01*
X007033Y009183D01*
X006841Y009357D01*
X006841Y009620D01*
X006692Y009840D02*
X006153Y009301D01*
X007033Y009183D02*
X007033Y008683D01*
X008736Y008933D02*
X008733Y009365D01*
X008843Y009473D01*
X009178Y009471D01*
X009433Y009726D01*
X009440Y009726D01*
X009433Y009726D02*
X009677Y009970D01*
X009822Y010109D02*
X009819Y010280D01*
X009732Y010381D01*
X009256Y010678D02*
X009245Y010689D01*
X009245Y010945D02*
X009544Y010945D01*
X009642Y010852D01*
X010179Y010852D01*
X010418Y010609D01*
X010392Y010364D02*
X010392Y010324D01*
X010048Y011181D02*
X009947Y011201D01*
X009245Y011201D01*
X009245Y011457D02*
X009246Y011458D01*
X009521Y011458D01*
X009245Y011713D02*
X009341Y011810D01*
X009501Y011808D01*
X009999Y011636D02*
X009994Y011584D01*
X009999Y011636D02*
X010049Y011749D01*
X010047Y012318D02*
X009984Y012355D01*
X009687Y012353D01*
X009748Y012827D02*
X010341Y012826D01*
X010619Y013104D01*
X009748Y012827D02*
X008930Y012009D01*
X008949Y012008D01*
X007699Y012587D02*
X007372Y012587D01*
X007219Y012740D01*
X007147Y012740D01*
X006914Y012008D02*
X006729Y011823D01*
X006914Y012008D02*
X007414Y012008D01*
X006474Y011972D02*
X006411Y011910D01*
X006411Y011766D01*
X006411Y011530D02*
X006411Y011076D01*
X006223Y010888D01*
X005263Y010888D01*
X005006Y011144D01*
X004112Y008674D02*
X004111Y007780D01*
X004701Y007191D01*
X005037Y007538D02*
X005038Y007544D01*
X003129Y005894D02*
X003129Y005680D01*
X003129Y005894D02*
X003079Y005923D01*
X008736Y008933D02*
X008871Y008798D01*
X009159Y008683D01*
X009184Y009161D02*
X009378Y009355D01*
X009405Y009355D01*
X009184Y009161D02*
X009159Y009183D01*
X009712Y008684D02*
X009710Y008657D01*
D38*
X009712Y008684D02*
X009716Y008688D01*
X009931Y008688D01*
X010505Y009262D01*
X011070Y009262D01*
X011070Y009577D02*
X011291Y009577D01*
X011266Y009602D01*
X011291Y009577D02*
X011463Y009577D01*
X011503Y009616D01*
X011311Y009808D01*
X011311Y010108D01*
X011196Y010223D01*
X011099Y010223D01*
X010493Y010223D01*
X010392Y010324D01*
X010301Y010233D01*
X010301Y010138D01*
X009985Y009822D01*
X009985Y009776D01*
X009826Y009776D01*
X009405Y009355D01*
X009557Y009355D01*
X009710Y009203D01*
X009710Y008922D01*
X009712Y008920D01*
X009712Y008684D02*
X009712Y008519D01*
X009374Y008181D01*
X009372Y008183D01*
X009159Y008183D01*
X008892Y008183D01*
X008649Y008426D01*
X008171Y008376D02*
X008171Y007858D01*
X008201Y007828D01*
X008171Y007799D01*
X008171Y007298D01*
X007921Y007298D01*
X007840Y007218D01*
X007840Y007312D01*
X007796Y007419D01*
X007714Y007500D01*
X007608Y007545D01*
X007492Y007545D01*
X007487Y007542D01*
X007488Y007545D01*
X007488Y007674D01*
X007042Y007674D01*
X007042Y007692D01*
X007488Y007692D01*
X007488Y007821D01*
X007478Y007859D01*
X007458Y007893D01*
X007433Y007919D01*
X007468Y007954D01*
X007696Y007954D01*
X007788Y007992D01*
X008171Y008376D01*
X008171Y008302D02*
X008098Y008302D01*
X008171Y008204D02*
X007999Y008204D01*
X007901Y008105D02*
X008171Y008105D01*
X008171Y008007D02*
X007802Y008007D01*
X007488Y007810D02*
X008182Y007810D01*
X008171Y007908D02*
X007444Y007908D01*
X007488Y007711D02*
X008171Y007711D01*
X008171Y007613D02*
X007488Y007613D01*
X007681Y007514D02*
X008171Y007514D01*
X008171Y007416D02*
X007797Y007416D01*
X007838Y007317D02*
X008171Y007317D01*
X007841Y007219D02*
X007840Y007219D01*
X007821Y007151D02*
X007821Y006808D01*
X007631Y006808D01*
X007531Y006709D01*
X007531Y006268D01*
X007027Y005764D01*
X006945Y005682D01*
X006901Y005576D01*
X006901Y005078D01*
X005241Y003418D01*
X005131Y003418D01*
X005425Y003712D01*
X005507Y003794D01*
X005551Y003900D01*
X005551Y004668D01*
X006031Y005148D01*
X006380Y005148D01*
X006392Y005143D01*
X006510Y005143D01*
X006618Y005188D01*
X006701Y005271D01*
X006746Y005379D01*
X006746Y005497D01*
X006701Y005605D01*
X006618Y005688D01*
X006510Y005733D01*
X006392Y005733D01*
X006380Y005728D01*
X005853Y005728D01*
X005747Y005684D01*
X005665Y005602D01*
X005097Y005034D01*
X005097Y005034D01*
X005015Y004952D01*
X004971Y004846D01*
X004971Y004078D01*
X004769Y003876D01*
X004769Y004098D01*
X004315Y004098D01*
X004315Y004198D01*
X004769Y004198D01*
X004769Y004483D01*
X004759Y004521D01*
X004739Y004555D01*
X004711Y004583D01*
X004677Y004603D01*
X004639Y004613D01*
X004315Y004613D01*
X004315Y004198D01*
X004215Y004198D01*
X004215Y004098D01*
X003760Y004098D01*
X003760Y003868D01*
X003731Y003868D01*
X003508Y004091D01*
X003600Y004183D01*
X003600Y004639D01*
X003501Y004739D01*
X002965Y004739D01*
X002965Y004781D01*
X002932Y004814D01*
X002938Y004812D01*
X003165Y004812D01*
X003165Y005091D01*
X003223Y005091D01*
X003223Y005148D01*
X003580Y005148D01*
X003580Y005290D01*
X003648Y005318D01*
X003731Y005401D01*
X003740Y005423D01*
X003740Y004865D01*
X003840Y004766D01*
X004689Y004766D01*
X004789Y004865D01*
X004789Y005636D01*
X004689Y005736D01*
X004577Y005736D01*
X004573Y005768D01*
X004507Y005881D01*
X004403Y005961D01*
X004276Y005995D01*
X004146Y005978D01*
X004043Y005918D01*
X003818Y006143D01*
X003722Y006183D01*
X002425Y006183D01*
X002375Y006184D01*
X002373Y006183D01*
X002371Y006183D01*
X002325Y006164D01*
X002279Y006146D01*
X002277Y006144D01*
X002275Y006143D01*
X002240Y006108D01*
X002155Y006026D01*
X002153Y006025D01*
X002118Y005990D01*
X002082Y005955D01*
X002081Y005953D01*
X002080Y005952D01*
X002061Y005906D01*
X002060Y005904D01*
X001732Y005904D01*
X001633Y005804D01*
X001633Y005756D01*
X001515Y005758D01*
X001499Y005762D01*
X001464Y005758D01*
X001429Y005758D01*
X001413Y005752D01*
X001396Y005750D01*
X001366Y005733D01*
X001333Y005720D01*
X001327Y005714D01*
X001211Y005714D01*
X001211Y014268D01*
X002950Y014268D01*
X002915Y014184D01*
X002915Y014068D01*
X002959Y013962D01*
X003041Y013880D01*
X003147Y013836D01*
X003263Y013836D01*
X003369Y013880D01*
X003451Y013962D01*
X003454Y013968D01*
X003455Y013968D01*
X003455Y013926D01*
X003455Y013843D01*
X003455Y013651D01*
X003409Y013605D01*
X003365Y013499D01*
X003365Y013445D01*
X003161Y013649D01*
X003161Y013696D01*
X003117Y013802D01*
X003035Y013884D01*
X002929Y013928D01*
X002813Y013928D01*
X002765Y013908D01*
X002721Y013952D01*
X002578Y014011D01*
X001987Y014011D01*
X001844Y013952D01*
X001735Y013842D01*
X001682Y013714D01*
X001649Y013728D01*
X001533Y013728D01*
X001427Y013684D01*
X001345Y013602D01*
X001301Y013496D01*
X001301Y013380D01*
X001345Y013274D01*
X001427Y013192D01*
X001533Y013148D01*
X001649Y013148D01*
X001696Y013168D01*
X001696Y013167D01*
X001696Y013130D01*
X001696Y013094D01*
X001710Y013023D01*
X001738Y012956D01*
X001776Y012899D01*
X001735Y012858D01*
X001676Y012715D01*
X001676Y012561D01*
X001735Y012418D01*
X001761Y012392D01*
X001735Y012366D01*
X001676Y012223D01*
X001676Y012069D01*
X001735Y011926D01*
X001844Y011817D01*
X001987Y011758D01*
X002578Y011758D01*
X002721Y011817D01*
X002722Y011817D01*
X002777Y011762D01*
X002883Y011718D01*
X002939Y011718D01*
X003661Y010996D01*
X002983Y010996D01*
X002006Y010996D01*
X001906Y010897D01*
X001906Y009380D01*
X002006Y009280D01*
X002578Y009280D01*
X002787Y009072D01*
X002822Y009036D01*
X002823Y009036D01*
X002868Y009017D01*
X002914Y008998D01*
X002914Y008998D01*
X002915Y008998D01*
X002964Y008998D01*
X004561Y008998D01*
X004561Y008898D01*
X004661Y008798D01*
X005242Y008798D01*
X005341Y008898D01*
X005341Y008956D01*
X005346Y008954D01*
X005504Y008954D01*
X005504Y009263D01*
X005582Y009263D01*
X005582Y008954D01*
X005740Y008954D01*
X005778Y008965D01*
X005812Y008984D01*
X005834Y009006D01*
X005906Y008934D01*
X006401Y008934D01*
X006500Y009034D01*
X006500Y009365D01*
X006623Y009488D01*
X006638Y009488D01*
X006656Y009457D01*
X006672Y009441D01*
X006670Y009441D01*
X006636Y009421D01*
X006608Y009393D01*
X006588Y009359D01*
X006578Y009321D01*
X006578Y009192D01*
X007024Y009192D01*
X007024Y009174D01*
X007042Y009174D01*
X007042Y008692D01*
X007488Y008692D01*
X007488Y008821D01*
X007478Y008859D01*
X007458Y008893D01*
X007955Y008893D01*
X007936Y008848D02*
X007543Y008454D01*
X007439Y008454D01*
X007458Y008473D01*
X007478Y008507D01*
X007488Y008545D01*
X007488Y008674D01*
X007042Y008674D01*
X007042Y008692D01*
X007024Y008692D01*
X007024Y008674D01*
X006578Y008674D01*
X006578Y008545D01*
X006588Y008507D01*
X006608Y008473D01*
X006634Y008447D01*
X006558Y008372D01*
X006558Y007995D01*
X006634Y007919D01*
X006608Y007893D01*
X006588Y007859D01*
X006578Y007821D01*
X006578Y007692D01*
X007024Y007692D01*
X007024Y007674D01*
X006578Y007674D01*
X006578Y007545D01*
X006588Y007507D01*
X006590Y007505D01*
X005758Y007505D01*
X005718Y007601D01*
X005636Y007683D01*
X005530Y007727D01*
X005414Y007727D01*
X005308Y007683D01*
X005296Y007671D01*
X005283Y007702D01*
X005201Y007784D01*
X005095Y007828D01*
X004979Y007828D01*
X004970Y007824D01*
X004661Y008132D01*
X004661Y008155D01*
X004617Y008261D01*
X004535Y008343D01*
X004429Y008387D01*
X004313Y008387D01*
X004312Y008386D01*
X004312Y008464D01*
X004358Y008510D01*
X004402Y008616D01*
X004402Y008732D01*
X004358Y008838D01*
X004276Y008920D01*
X004170Y008964D01*
X004054Y008964D01*
X003948Y008920D01*
X003878Y008850D01*
X002987Y008850D01*
X002014Y008850D01*
X001914Y008751D01*
X001914Y008621D01*
X001838Y008652D01*
X001722Y008652D01*
X001616Y008608D01*
X001534Y008526D01*
X001490Y008420D01*
X001490Y008304D01*
X001530Y008208D01*
X001530Y007104D01*
X001536Y007090D01*
X001536Y007087D01*
X001574Y006996D01*
X001645Y006925D01*
X001943Y006626D01*
X001983Y006530D01*
X002065Y006448D01*
X002171Y006404D01*
X002287Y006404D01*
X002393Y006448D01*
X002475Y006530D01*
X002519Y006636D01*
X002519Y006752D01*
X002475Y006858D01*
X002393Y006940D01*
X002297Y006980D01*
X002143Y007134D01*
X002468Y007134D01*
X002479Y007123D01*
X003160Y006442D01*
X003252Y006404D01*
X006490Y006404D01*
X006586Y006364D01*
X006701Y006364D01*
X006808Y006408D01*
X006890Y006489D01*
X006934Y006596D01*
X006934Y006711D01*
X006890Y006818D01*
X006808Y006899D01*
X006701Y006944D01*
X006586Y006944D01*
X006490Y006904D01*
X004765Y006904D01*
X004865Y006945D01*
X004947Y007027D01*
X004991Y007133D01*
X004991Y007248D01*
X005095Y007248D01*
X005201Y007292D01*
X005213Y007304D01*
X005226Y007273D01*
X005308Y007191D01*
X005404Y007151D01*
X005513Y007043D01*
X005605Y007005D01*
X007396Y007005D01*
X007492Y006965D01*
X007608Y006965D01*
X007714Y007009D01*
X007796Y007090D01*
X007821Y007151D01*
X007821Y007120D02*
X007808Y007120D01*
X007821Y007022D02*
X007727Y007022D01*
X007821Y006923D02*
X006751Y006923D01*
X006883Y006825D02*
X007821Y006825D01*
X007549Y006726D02*
X006928Y006726D01*
X006934Y006628D02*
X007531Y006628D01*
X007531Y006529D02*
X006906Y006529D01*
X006831Y006431D02*
X007531Y006431D01*
X007531Y006332D02*
X001211Y006332D01*
X001211Y006234D02*
X007496Y006234D01*
X007398Y006135D02*
X003826Y006135D01*
X003924Y006037D02*
X007299Y006037D01*
X007201Y005938D02*
X004433Y005938D01*
X004531Y005840D02*
X007102Y005840D01*
X007004Y005741D02*
X004576Y005741D01*
X004782Y005643D02*
X005705Y005643D01*
X005607Y005544D02*
X004789Y005544D01*
X004789Y005446D02*
X005508Y005446D01*
X005410Y005347D02*
X004789Y005347D01*
X004789Y005249D02*
X005311Y005249D01*
X005213Y005150D02*
X004789Y005150D01*
X004789Y005052D02*
X005114Y005052D01*
X005016Y004953D02*
X004789Y004953D01*
X004778Y004855D02*
X004975Y004855D01*
X004971Y004756D02*
X002965Y004756D01*
X002832Y004880D02*
X002480Y004880D01*
X002456Y004856D01*
X002441Y004860D01*
X002310Y004860D01*
X002310Y004481D01*
X002288Y004481D01*
X002288Y004860D01*
X002157Y004860D01*
X002142Y004856D01*
X002117Y004880D01*
X001796Y004880D01*
X001796Y004905D01*
X001697Y005005D01*
X001211Y005005D01*
X001211Y005059D01*
X001697Y005059D01*
X001727Y005089D01*
X001732Y005084D01*
X002808Y005084D01*
X002808Y004943D01*
X002818Y004904D01*
X002832Y004880D01*
X002808Y004953D02*
X001749Y004953D01*
X001211Y005052D02*
X002808Y005052D01*
X003165Y005052D02*
X003223Y005052D01*
X003223Y005091D02*
X003223Y004812D01*
X003450Y004812D01*
X003488Y004822D01*
X003522Y004842D01*
X003550Y004870D01*
X003570Y004904D01*
X003580Y004943D01*
X003580Y005091D01*
X003223Y005091D01*
X003223Y004953D02*
X003165Y004953D01*
X003165Y004855D02*
X003223Y004855D01*
X003535Y004855D02*
X003751Y004855D01*
X003740Y004953D02*
X003580Y004953D01*
X003580Y005052D02*
X003740Y005052D01*
X003740Y005150D02*
X003580Y005150D01*
X003580Y005249D02*
X003740Y005249D01*
X003740Y005347D02*
X003677Y005347D01*
X003481Y005568D02*
X003357Y005444D01*
X003129Y005444D01*
X003582Y004658D02*
X004971Y004658D01*
X004971Y004559D02*
X004735Y004559D01*
X004769Y004461D02*
X004971Y004461D01*
X004971Y004362D02*
X004769Y004362D01*
X004769Y004264D02*
X004971Y004264D01*
X004971Y004165D02*
X004315Y004165D01*
X004315Y004264D02*
X004215Y004264D01*
X004215Y004198D02*
X004215Y004613D01*
X003891Y004613D01*
X003853Y004603D01*
X003818Y004583D01*
X003790Y004555D01*
X003771Y004521D01*
X003760Y004483D01*
X003760Y004198D01*
X004215Y004198D01*
X004215Y004165D02*
X003582Y004165D01*
X003600Y004264D02*
X003760Y004264D01*
X003760Y004362D02*
X003600Y004362D01*
X003600Y004461D02*
X003760Y004461D01*
X003794Y004559D02*
X003600Y004559D01*
X003234Y004371D02*
X003194Y004411D01*
X002904Y004084D02*
X002904Y003938D01*
X002948Y003831D01*
X003361Y003418D01*
X003113Y003418D01*
X003007Y003374D01*
X002925Y003292D01*
X002899Y003228D01*
X002835Y003292D01*
X002608Y003386D01*
X002362Y003386D01*
X002135Y003292D01*
X001962Y003118D01*
X001868Y002891D01*
X001868Y002646D01*
X001962Y002419D01*
X002135Y002245D01*
X002362Y002151D01*
X002608Y002151D01*
X002835Y002245D01*
X003008Y002419D01*
X003102Y002646D01*
X003102Y002843D01*
X003113Y002838D01*
X003620Y002838D01*
X003620Y002646D01*
X003714Y002419D01*
X003887Y002245D01*
X004114Y002151D01*
X004360Y002151D01*
X004587Y002245D01*
X004760Y002419D01*
X004854Y002646D01*
X004854Y002838D01*
X005419Y002838D01*
X005525Y002882D01*
X006789Y004146D01*
X006756Y004067D01*
X006756Y003949D01*
X006801Y003841D01*
X006831Y003811D01*
X006831Y003385D01*
X006801Y003355D01*
X006756Y003247D01*
X006756Y003129D01*
X006801Y003021D01*
X006884Y002938D01*
X006992Y002893D01*
X007110Y002893D01*
X007218Y002938D01*
X007301Y003021D01*
X007346Y003129D01*
X007346Y003247D01*
X007301Y003355D01*
X007271Y003385D01*
X007271Y003811D01*
X007301Y003841D01*
X007346Y003949D01*
X007346Y004067D01*
X007301Y004175D01*
X007218Y004258D01*
X007110Y004303D01*
X006992Y004303D01*
X006914Y004270D01*
X007321Y004678D01*
X007321Y004200D01*
X007365Y004094D01*
X008025Y003434D01*
X008107Y003352D01*
X008213Y003308D01*
X008494Y003308D01*
X008494Y002876D01*
X008586Y002784D01*
X008504Y002703D01*
X008504Y002154D01*
X008284Y002154D01*
X008053Y002059D01*
X007877Y001882D01*
X007818Y001740D01*
X007759Y001882D01*
X007583Y002059D01*
X007352Y002154D01*
X007103Y002154D01*
X006872Y002059D01*
X006696Y001882D01*
X006600Y001652D01*
X006600Y001402D01*
X006696Y001172D01*
X006872Y000995D01*
X007010Y000938D01*
X005114Y000938D01*
X005318Y001022D01*
X005490Y001195D01*
X005583Y001420D01*
X005583Y001664D01*
X005490Y001889D01*
X005318Y002062D01*
X005092Y002155D01*
X004848Y002155D01*
X004623Y002062D01*
X004451Y001889D01*
X004357Y001664D01*
X004357Y001420D01*
X004451Y001195D01*
X004623Y001022D01*
X004827Y000938D01*
X001905Y000938D01*
X002099Y001019D01*
X002271Y001191D01*
X002365Y001416D01*
X002365Y001660D01*
X002271Y001885D01*
X002099Y002058D01*
X001874Y002151D01*
X001630Y002151D01*
X001405Y002058D01*
X001232Y001885D01*
X001211Y001834D01*
X001211Y004350D01*
X001330Y004350D01*
X001349Y004328D01*
X001353Y004319D01*
X001383Y004290D01*
X001410Y004258D01*
X001419Y004254D01*
X001427Y004246D01*
X001465Y004231D01*
X001502Y004212D01*
X001513Y004211D01*
X001522Y004207D01*
X001564Y004208D01*
X001606Y004205D01*
X001615Y004208D01*
X001633Y004208D01*
X001633Y004160D01*
X001732Y004060D01*
X002117Y004060D01*
X002142Y004084D01*
X002157Y004080D01*
X002288Y004080D01*
X002288Y004459D01*
X002310Y004459D01*
X002310Y004080D01*
X002441Y004080D01*
X002456Y004084D01*
X002480Y004060D01*
X002865Y004060D01*
X002889Y004084D01*
X002904Y004084D01*
X002904Y004067D02*
X002872Y004067D01*
X002904Y003968D02*
X001211Y003968D01*
X001211Y003870D02*
X002932Y003870D01*
X003008Y003771D02*
X001211Y003771D01*
X001211Y003673D02*
X003107Y003673D01*
X003205Y003574D02*
X001211Y003574D01*
X001211Y003476D02*
X003304Y003476D01*
X003014Y003377D02*
X002629Y003377D01*
X002848Y003279D02*
X002920Y003279D01*
X003102Y002786D02*
X003620Y002786D01*
X003620Y002688D02*
X003102Y002688D01*
X003079Y002589D02*
X003643Y002589D01*
X003684Y002491D02*
X003038Y002491D01*
X002982Y002392D02*
X003740Y002392D01*
X003839Y002294D02*
X002883Y002294D01*
X002714Y002195D02*
X004008Y002195D01*
X004466Y002195D02*
X008504Y002195D01*
X008504Y002294D02*
X004635Y002294D01*
X004734Y002392D02*
X008504Y002392D01*
X008504Y002491D02*
X004790Y002491D01*
X004831Y002589D02*
X008504Y002589D01*
X008504Y002688D02*
X004854Y002688D01*
X004854Y002786D02*
X008584Y002786D01*
X008494Y002885D02*
X005528Y002885D01*
X005626Y002983D02*
X006839Y002983D01*
X006776Y003082D02*
X005725Y003082D01*
X005823Y003180D02*
X006756Y003180D01*
X006769Y003279D02*
X005922Y003279D01*
X006020Y003377D02*
X006823Y003377D01*
X006831Y003476D02*
X006119Y003476D01*
X006217Y003574D02*
X006831Y003574D01*
X006831Y003673D02*
X006316Y003673D01*
X006414Y003771D02*
X006831Y003771D01*
X006789Y003870D02*
X006513Y003870D01*
X006611Y003968D02*
X006756Y003968D01*
X006756Y004067D02*
X006710Y004067D01*
X007051Y004008D02*
X007051Y003188D01*
X007263Y002983D02*
X008494Y002983D01*
X008494Y003082D02*
X007326Y003082D01*
X007346Y003180D02*
X008494Y003180D01*
X008494Y003279D02*
X007333Y003279D01*
X007279Y003377D02*
X008082Y003377D01*
X007984Y003476D02*
X007271Y003476D01*
X007271Y003574D02*
X007885Y003574D01*
X007787Y003673D02*
X007271Y003673D01*
X007271Y003771D02*
X007688Y003771D01*
X007590Y003870D02*
X007313Y003870D01*
X007346Y003968D02*
X007491Y003968D01*
X007393Y004067D02*
X007346Y004067D01*
X007336Y004165D02*
X007305Y004165D01*
X007321Y004264D02*
X007205Y004264D01*
X007321Y004362D02*
X007005Y004362D01*
X007104Y004461D02*
X007321Y004461D01*
X007321Y004559D02*
X007202Y004559D01*
X007301Y004658D02*
X007321Y004658D01*
X006874Y005052D02*
X005935Y005052D01*
X005836Y004953D02*
X006776Y004953D01*
X006677Y004855D02*
X005738Y004855D01*
X005639Y004756D02*
X006579Y004756D01*
X006480Y004658D02*
X005551Y004658D01*
X005551Y004559D02*
X006382Y004559D01*
X006283Y004461D02*
X005551Y004461D01*
X005551Y004362D02*
X006185Y004362D01*
X006086Y004264D02*
X005551Y004264D01*
X005551Y004165D02*
X005988Y004165D01*
X005889Y004067D02*
X005551Y004067D01*
X005551Y003968D02*
X005791Y003968D01*
X005692Y003870D02*
X005538Y003870D01*
X005484Y003771D02*
X005594Y003771D01*
X005495Y003673D02*
X005386Y003673D01*
X005397Y003574D02*
X005287Y003574D01*
X005298Y003476D02*
X005189Y003476D01*
X004861Y003968D02*
X004769Y003968D01*
X004769Y004067D02*
X004959Y004067D01*
X004315Y004362D02*
X004215Y004362D01*
X004215Y004461D02*
X004315Y004461D01*
X004315Y004559D02*
X004215Y004559D01*
X003760Y004067D02*
X003533Y004067D01*
X003631Y003968D02*
X003760Y003968D01*
X003760Y003870D02*
X003730Y003870D01*
X002474Y004067D02*
X002124Y004067D01*
X002288Y004165D02*
X002310Y004165D01*
X002310Y004264D02*
X002288Y004264D01*
X002288Y004362D02*
X002310Y004362D01*
X002310Y004559D02*
X002288Y004559D01*
X002288Y004658D02*
X002310Y004658D01*
X002310Y004756D02*
X002288Y004756D01*
X002288Y004855D02*
X002310Y004855D01*
X001633Y004165D02*
X001211Y004165D01*
X001211Y004067D02*
X001726Y004067D01*
X001405Y004264D02*
X001211Y004264D01*
X001211Y003377D02*
X002341Y003377D01*
X002122Y003279D02*
X001211Y003279D01*
X001211Y003180D02*
X002024Y003180D01*
X001947Y003082D02*
X001211Y003082D01*
X001211Y002983D02*
X001906Y002983D01*
X001868Y002885D02*
X001211Y002885D01*
X001211Y002786D02*
X001868Y002786D01*
X001868Y002688D02*
X001211Y002688D01*
X001211Y002589D02*
X001891Y002589D01*
X001932Y002491D02*
X001211Y002491D01*
X001211Y002392D02*
X001988Y002392D01*
X002087Y002294D02*
X001211Y002294D01*
X001211Y002195D02*
X002256Y002195D01*
X002159Y001998D02*
X004560Y001998D01*
X004461Y001900D02*
X002257Y001900D01*
X002306Y001801D02*
X004414Y001801D01*
X004373Y001703D02*
X002347Y001703D01*
X002365Y001604D02*
X004357Y001604D01*
X004357Y001506D02*
X002365Y001506D01*
X002361Y001407D02*
X004363Y001407D01*
X004404Y001309D02*
X002320Y001309D01*
X002279Y001210D02*
X004444Y001210D01*
X004534Y001112D02*
X002192Y001112D01*
X002086Y001013D02*
X004646Y001013D01*
X005295Y001013D02*
X006854Y001013D01*
X006756Y001112D02*
X005407Y001112D01*
X005496Y001210D02*
X006680Y001210D01*
X006639Y001309D02*
X005537Y001309D01*
X005578Y001407D02*
X006600Y001407D01*
X006600Y001506D02*
X005583Y001506D01*
X005583Y001604D02*
X006600Y001604D01*
X006621Y001703D02*
X005567Y001703D01*
X005526Y001801D02*
X006662Y001801D01*
X006713Y001900D02*
X005480Y001900D01*
X005381Y001998D02*
X006812Y001998D01*
X006964Y002097D02*
X005233Y002097D01*
X004708Y002097D02*
X002005Y002097D01*
X001499Y002097D02*
X001211Y002097D01*
X001211Y001998D02*
X001345Y001998D01*
X001247Y001900D02*
X001211Y001900D01*
X001211Y005741D02*
X001381Y005741D01*
X001211Y005840D02*
X001668Y005840D01*
X002074Y005938D02*
X001211Y005938D01*
X001211Y006037D02*
X002166Y006037D01*
X002267Y006135D02*
X001211Y006135D01*
X001211Y006431D02*
X002107Y006431D01*
X001984Y006529D02*
X001211Y006529D01*
X001211Y006628D02*
X001942Y006628D01*
X001844Y006726D02*
X001211Y006726D01*
X001211Y006825D02*
X001745Y006825D01*
X001647Y006923D02*
X001211Y006923D01*
X001211Y007022D02*
X001563Y007022D01*
X001530Y007120D02*
X001211Y007120D01*
X001211Y007219D02*
X001530Y007219D01*
X001530Y007317D02*
X001211Y007317D01*
X001211Y007416D02*
X001530Y007416D01*
X001530Y007514D02*
X001211Y007514D01*
X001211Y007613D02*
X001530Y007613D01*
X001530Y007711D02*
X001211Y007711D01*
X001211Y007810D02*
X001530Y007810D01*
X001530Y007908D02*
X001211Y007908D01*
X001211Y008007D02*
X001530Y008007D01*
X001530Y008105D02*
X001211Y008105D01*
X001211Y008204D02*
X001530Y008204D01*
X001491Y008302D02*
X001211Y008302D01*
X001211Y008401D02*
X001490Y008401D01*
X001523Y008499D02*
X001211Y008499D01*
X001211Y008598D02*
X001605Y008598D01*
X001914Y008696D02*
X001211Y008696D01*
X001211Y008795D02*
X001958Y008795D01*
X001999Y009287D02*
X001211Y009287D01*
X001211Y009189D02*
X002670Y009189D01*
X002769Y009090D02*
X001211Y009090D01*
X001211Y008992D02*
X004561Y008992D01*
X004566Y008893D02*
X004303Y008893D01*
X004376Y008795D02*
X006578Y008795D01*
X006578Y008821D02*
X006578Y008692D01*
X007024Y008692D01*
X007024Y008951D01*
X007024Y009174D01*
X006578Y009174D01*
X006578Y009045D01*
X006588Y009007D01*
X006608Y008973D01*
X006636Y008945D01*
X006656Y008933D01*
X006636Y008921D01*
X006608Y008893D01*
X005337Y008893D01*
X005504Y008992D02*
X005582Y008992D01*
X005582Y009090D02*
X005504Y009090D01*
X005504Y009189D02*
X005582Y009189D01*
X005582Y009340D02*
X005504Y009340D01*
X005504Y009648D01*
X005346Y009648D01*
X005341Y009647D01*
X005341Y009663D01*
X005781Y009663D01*
X005781Y009636D01*
X005778Y009638D01*
X005740Y009648D01*
X005582Y009648D01*
X005582Y009340D01*
X005582Y009386D02*
X005504Y009386D01*
X005504Y009484D02*
X005582Y009484D01*
X005582Y009583D02*
X005504Y009583D01*
X004918Y009958D02*
X004859Y009958D01*
X004859Y009944D01*
X004823Y009954D01*
X004595Y009954D01*
X004595Y009793D01*
X004561Y009759D01*
X004561Y009675D01*
X004538Y009675D01*
X004538Y009618D01*
X004180Y009618D01*
X004180Y009498D01*
X004065Y009498D01*
X004065Y010592D01*
X004114Y010543D01*
X004160Y010497D01*
X004160Y010127D01*
X004260Y010028D01*
X004849Y010028D01*
X004859Y010018D01*
X004859Y009958D01*
X004918Y009958D01*
X004918Y009958D01*
X004859Y009977D02*
X004065Y009977D01*
X004065Y010075D02*
X004213Y010075D01*
X004160Y010174D02*
X004065Y010174D01*
X004065Y010272D02*
X004160Y010272D01*
X004160Y010371D02*
X004065Y010371D01*
X004065Y010469D02*
X004160Y010469D01*
X004114Y010543D02*
X004114Y010543D01*
X004090Y010568D02*
X004065Y010568D01*
X004273Y009944D02*
X004238Y009924D01*
X004210Y009896D01*
X004191Y009862D01*
X004180Y009824D01*
X004180Y009675D01*
X004538Y009675D01*
X004538Y009954D01*
X004311Y009954D01*
X004273Y009944D01*
X004200Y009878D02*
X004065Y009878D01*
X004065Y009780D02*
X004180Y009780D01*
X004180Y009681D02*
X004065Y009681D01*
X004065Y009583D02*
X004180Y009583D01*
X004538Y009681D02*
X004561Y009681D01*
X004538Y009780D02*
X004582Y009780D01*
X004595Y009878D02*
X004538Y009878D01*
X003921Y008893D02*
X001211Y008893D01*
X001211Y009386D02*
X001906Y009386D01*
X001906Y009484D02*
X001211Y009484D01*
X001211Y009583D02*
X001906Y009583D01*
X001906Y009681D02*
X001211Y009681D01*
X001211Y009780D02*
X001906Y009780D01*
X001906Y009878D02*
X001211Y009878D01*
X001211Y009977D02*
X001906Y009977D01*
X001906Y010075D02*
X001211Y010075D01*
X001211Y010174D02*
X001906Y010174D01*
X001906Y010272D02*
X001211Y010272D01*
X001211Y010371D02*
X001906Y010371D01*
X001906Y010469D02*
X001211Y010469D01*
X001211Y010568D02*
X001906Y010568D01*
X001906Y010666D02*
X001211Y010666D01*
X001211Y010765D02*
X001906Y010765D01*
X001906Y010863D02*
X001211Y010863D01*
X001211Y010962D02*
X001971Y010962D01*
X001211Y011060D02*
X003597Y011060D01*
X003499Y011159D02*
X001211Y011159D01*
X001211Y011257D02*
X003400Y011257D01*
X003302Y011356D02*
X001211Y011356D01*
X001211Y011454D02*
X003203Y011454D01*
X003105Y011553D02*
X001211Y011553D01*
X001211Y011651D02*
X003006Y011651D01*
X002807Y011750D02*
X001211Y011750D01*
X001211Y011848D02*
X001813Y011848D01*
X001726Y011947D02*
X001211Y011947D01*
X001211Y012045D02*
X001686Y012045D01*
X001676Y012144D02*
X001211Y012144D01*
X001211Y012242D02*
X001684Y012242D01*
X001724Y012341D02*
X001211Y012341D01*
X001211Y012439D02*
X001726Y012439D01*
X001685Y012538D02*
X001211Y012538D01*
X001211Y012636D02*
X001676Y012636D01*
X001684Y012735D02*
X001211Y012735D01*
X001211Y012833D02*
X001725Y012833D01*
X001754Y012932D02*
X001211Y012932D01*
X001211Y013030D02*
X001708Y013030D01*
X001696Y013129D02*
X001211Y013129D01*
X001211Y013227D02*
X001392Y013227D01*
X001324Y013326D02*
X001211Y013326D01*
X001211Y013424D02*
X001301Y013424D01*
X001312Y013523D02*
X001211Y013523D01*
X001211Y013621D02*
X001364Y013621D01*
X001513Y013720D02*
X001211Y013720D01*
X001211Y013818D02*
X001725Y013818D01*
X001684Y013720D02*
X001669Y013720D01*
X001809Y013917D02*
X001211Y013917D01*
X001211Y014015D02*
X002937Y014015D01*
X002957Y013917D02*
X003004Y013917D01*
X003101Y013818D02*
X003455Y013818D01*
X003455Y013843D02*
X003455Y013843D01*
X003455Y013917D02*
X003406Y013917D01*
X003455Y013720D02*
X003151Y013720D01*
X003189Y013621D02*
X003425Y013621D01*
X003375Y013523D02*
X003287Y013523D01*
X003371Y013369D02*
X003409Y013277D01*
X003491Y013195D01*
X003597Y013151D01*
X003670Y013151D01*
X003670Y012474D01*
X003770Y012374D01*
X004743Y012374D01*
X004745Y012372D01*
X005728Y012372D01*
X005827Y012472D01*
X005827Y012888D01*
X005947Y012888D01*
X005947Y012877D01*
X005991Y012771D01*
X006073Y012689D01*
X006179Y012645D01*
X006215Y012645D01*
X005865Y012295D01*
X005595Y012295D01*
X005484Y012184D01*
X005407Y012261D01*
X003753Y012261D01*
X003371Y012643D01*
X003371Y013369D01*
X003371Y013326D02*
X003389Y013326D01*
X003371Y013227D02*
X003459Y013227D01*
X003371Y013129D02*
X003670Y013129D01*
X003670Y013030D02*
X003371Y013030D01*
X003371Y012932D02*
X003670Y012932D01*
X003670Y012833D02*
X003371Y012833D01*
X003371Y012735D02*
X003670Y012735D01*
X003670Y012636D02*
X003378Y012636D01*
X003476Y012538D02*
X003670Y012538D01*
X003705Y012439D02*
X003575Y012439D01*
X003673Y012341D02*
X005910Y012341D01*
X006009Y012439D02*
X005795Y012439D01*
X005827Y012538D02*
X006107Y012538D01*
X006206Y012636D02*
X005827Y012636D01*
X005827Y012735D02*
X006028Y012735D01*
X005965Y012833D02*
X005827Y012833D01*
X005542Y012242D02*
X005426Y012242D01*
X005912Y011144D02*
X006023Y011144D01*
X007031Y012208D02*
X007031Y012222D01*
X007188Y012222D01*
X007175Y012208D01*
X007031Y012208D01*
X007175Y012208D02*
X007175Y012208D01*
X006777Y013401D02*
X006524Y013401D01*
X006777Y013401D01*
X006777Y013401D01*
X006524Y013401D02*
X006524Y013401D01*
X006417Y013697D02*
X006401Y013712D01*
X006388Y013717D01*
X006379Y013727D01*
X006287Y013765D01*
X006187Y013765D01*
X006096Y013727D01*
X006089Y013721D01*
X006072Y013738D01*
X005827Y013738D01*
X005827Y013847D01*
X006486Y013847D01*
X006450Y013794D01*
X006423Y013727D01*
X006417Y013697D01*
X006421Y013720D02*
X006386Y013720D01*
X006467Y013818D02*
X005827Y013818D01*
X002971Y013273D02*
X002971Y012838D01*
X002943Y012838D01*
X002930Y012851D01*
X002833Y012851D01*
X002830Y012858D01*
X002790Y012899D01*
X002828Y012956D01*
X002855Y013023D01*
X002869Y013094D01*
X002869Y013130D01*
X002283Y013130D01*
X002283Y013130D01*
X002869Y013130D01*
X002869Y013167D01*
X002855Y013238D01*
X002828Y013305D01*
X002793Y013357D01*
X002813Y013348D01*
X002896Y013348D01*
X002971Y013273D01*
X002971Y013227D02*
X002857Y013227D01*
X002869Y013129D02*
X002971Y013129D01*
X002971Y013030D02*
X002857Y013030D01*
X002811Y012932D02*
X002971Y012932D01*
X002919Y013326D02*
X002814Y013326D01*
X002283Y013130D02*
X002283Y013130D01*
X001696Y013130D01*
X002283Y013130D01*
X002756Y013917D02*
X002786Y013917D01*
X002915Y014114D02*
X001211Y014114D01*
X001211Y014212D02*
X002927Y014212D01*
X002983Y010996D02*
X002983Y010996D01*
X002823Y009036D02*
X002823Y009036D01*
X002987Y008850D02*
X002987Y008850D01*
X004312Y008401D02*
X006587Y008401D01*
X006593Y008499D02*
X004347Y008499D01*
X004394Y008598D02*
X006578Y008598D01*
X006578Y008696D02*
X004402Y008696D01*
X004576Y008302D02*
X006558Y008302D01*
X006558Y008204D02*
X004641Y008204D01*
X004688Y008105D02*
X006558Y008105D01*
X006558Y008007D02*
X004787Y008007D01*
X004885Y007908D02*
X006623Y007908D01*
X006578Y007810D02*
X005139Y007810D01*
X005274Y007711D02*
X005376Y007711D01*
X005568Y007711D02*
X006578Y007711D01*
X006578Y007613D02*
X005707Y007613D01*
X005754Y007514D02*
X006586Y007514D01*
X006537Y006923D02*
X004812Y006923D01*
X004942Y007022D02*
X005564Y007022D01*
X005436Y007120D02*
X004986Y007120D01*
X004991Y007219D02*
X005281Y007219D01*
X005758Y007505D02*
X005758Y007505D01*
X007024Y008696D02*
X007042Y008696D01*
X007042Y008795D02*
X007024Y008795D01*
X007024Y008893D02*
X007042Y008893D01*
X007042Y008992D02*
X007024Y008992D01*
X007024Y009090D02*
X007042Y009090D01*
X007024Y009189D02*
X006500Y009189D01*
X006500Y009287D02*
X006578Y009287D01*
X006604Y009386D02*
X006521Y009386D01*
X006619Y009484D02*
X006641Y009484D01*
X007021Y009451D02*
X007026Y009457D01*
X007045Y009488D01*
X007172Y009488D01*
X007270Y009587D01*
X007283Y009575D01*
X007313Y009575D01*
X007285Y009507D01*
X007285Y009451D01*
X007042Y009451D01*
X007042Y009192D01*
X007024Y009192D01*
X007024Y009451D01*
X007021Y009451D01*
X007042Y009484D02*
X007285Y009484D01*
X007275Y009583D02*
X007266Y009583D01*
X007042Y009386D02*
X007024Y009386D01*
X007024Y009287D02*
X007042Y009287D01*
X006578Y009090D02*
X006500Y009090D01*
X006458Y008992D02*
X006597Y008992D01*
X006608Y008893D02*
X006588Y008859D01*
X006578Y008821D01*
X005848Y008992D02*
X005820Y008992D01*
X007410Y008933D02*
X007430Y008945D01*
X007458Y008973D01*
X007478Y009007D01*
X007488Y009045D01*
X007488Y009171D01*
X007517Y009159D01*
X007580Y009159D01*
X007591Y009148D01*
X008181Y009148D01*
X008181Y009070D01*
X008164Y009070D01*
X008058Y009026D01*
X007976Y008944D01*
X007936Y008848D01*
X007883Y008795D02*
X007488Y008795D01*
X007488Y008696D02*
X007785Y008696D01*
X007686Y008598D02*
X007488Y008598D01*
X007473Y008499D02*
X007588Y008499D01*
X007458Y008893D02*
X007430Y008921D01*
X007410Y008933D01*
X007469Y008992D02*
X008023Y008992D01*
X008181Y009090D02*
X007488Y009090D01*
X008541Y007728D02*
X009114Y007728D01*
X009159Y007683D01*
X009451Y007395D02*
X009535Y007395D01*
X009634Y007495D01*
X009634Y007584D01*
X009762Y007711D01*
X009858Y007751D01*
X009859Y007752D01*
X009866Y007755D01*
X009936Y007825D01*
X009939Y007832D01*
X009940Y007833D01*
X009984Y007939D01*
X009984Y007976D01*
X010084Y008076D01*
X010084Y007862D01*
X010146Y007800D01*
X010134Y007788D01*
X010114Y007754D01*
X010104Y007716D01*
X010104Y007528D01*
X010251Y007528D01*
X010251Y007438D01*
X010258Y007431D01*
X010104Y007431D01*
X010104Y007243D01*
X010114Y007205D01*
X010134Y007171D01*
X010162Y007143D01*
X010196Y007123D01*
X010234Y007113D01*
X010402Y007113D01*
X010402Y007338D01*
X010499Y007338D01*
X010499Y007113D01*
X010667Y007113D01*
X010705Y007123D01*
X010731Y007138D01*
X010685Y007092D01*
X010641Y006986D01*
X010641Y006876D01*
X010635Y006870D01*
X010371Y006870D01*
X010272Y006770D01*
X010272Y006393D01*
X010297Y006367D01*
X010292Y006346D01*
X010292Y006207D01*
X010639Y006207D01*
X010639Y006169D01*
X010292Y006169D01*
X010292Y006031D01*
X010297Y006009D01*
X010272Y005983D01*
X010272Y005606D01*
X010371Y005506D01*
X010828Y005506D01*
X010851Y005451D01*
X010934Y005368D01*
X010948Y005362D01*
X011301Y005016D01*
X011301Y004965D01*
X011218Y005048D01*
X011110Y005093D01*
X010992Y005093D01*
X010884Y005048D01*
X010801Y004965D01*
X010775Y004902D01*
X010761Y004915D01*
X010761Y005023D01*
X010626Y005158D01*
X010241Y005543D01*
X010241Y005934D01*
X010142Y006033D01*
X009886Y006033D01*
X009801Y006118D01*
X009645Y006118D01*
X009645Y006136D01*
X009565Y006216D01*
X009571Y006230D01*
X009571Y006346D01*
X009527Y006452D01*
X009445Y006534D01*
X009441Y006536D01*
X009441Y007009D01*
X009431Y007019D01*
X009431Y007218D01*
X009451Y007238D01*
X009451Y007395D01*
X009451Y007317D02*
X010104Y007317D01*
X010110Y007219D02*
X009432Y007219D01*
X009431Y007120D02*
X010208Y007120D01*
X010402Y007120D02*
X010499Y007120D01*
X010499Y007219D02*
X010402Y007219D01*
X010402Y007317D02*
X010499Y007317D01*
X010452Y007478D02*
X010451Y007480D01*
X010452Y007478D02*
X011331Y007478D01*
X011503Y007650D01*
X011503Y007963D01*
X011503Y007963D01*
X011503Y008349D01*
X011529Y008349D01*
X011529Y008486D01*
X011551Y008507D01*
X011549Y008514D01*
X011549Y008632D01*
X011936Y008632D01*
X012322Y008632D01*
X012322Y008750D01*
X012312Y008788D01*
X012311Y008789D01*
X012312Y008790D01*
X012322Y008829D01*
X012322Y008947D01*
X012322Y009058D01*
X012331Y009067D01*
X012331Y008496D01*
X012320Y008507D01*
X012322Y008514D01*
X012322Y008632D01*
X011936Y008632D01*
X011936Y008632D01*
X011936Y008632D01*
X011936Y008698D01*
X011936Y008947D01*
X012322Y008947D01*
X011936Y008947D01*
X011936Y008947D01*
X011936Y008632D01*
X011959Y008608D01*
X012251Y008608D01*
X012301Y008558D01*
X012301Y007738D01*
X012151Y007588D01*
X011651Y007588D01*
X011503Y007737D01*
X011503Y007963D01*
X011503Y008349D01*
X011476Y008349D01*
X011476Y009210D01*
X011529Y009210D01*
X011529Y009093D01*
X011551Y009071D01*
X011549Y009065D01*
X011549Y008947D01*
X011936Y008947D01*
X011936Y008947D01*
X011936Y008947D01*
X011936Y008632D01*
X011936Y008632D01*
X011549Y008632D01*
X011549Y008750D01*
X011560Y008788D01*
X011560Y008789D01*
X011560Y008790D01*
X011549Y008829D01*
X011549Y008947D01*
X011936Y008947D01*
X011936Y008893D02*
X011936Y008893D01*
X011936Y008795D02*
X011936Y008795D01*
X011936Y008696D02*
X011936Y008696D01*
X012322Y008696D02*
X012331Y008696D01*
X012322Y008598D02*
X012331Y008598D01*
X012328Y008499D02*
X012331Y008499D01*
X012313Y008795D02*
X012331Y008795D01*
X012322Y008893D02*
X012331Y008893D01*
X012322Y008992D02*
X012331Y008992D01*
X012215Y009262D02*
X011936Y009262D01*
X012215Y009262D02*
X012291Y009338D01*
X012291Y010136D01*
X012137Y010291D01*
X012179Y010638D02*
X012185Y010662D01*
X012185Y010840D01*
X011916Y010840D01*
X011916Y010878D01*
X012185Y010878D01*
X012185Y011013D01*
X012259Y011086D01*
X012259Y011542D01*
X012159Y011641D01*
X011981Y011641D01*
X011981Y011748D01*
X011997Y011764D01*
X012041Y011870D01*
X012041Y011986D01*
X012019Y012038D01*
X012182Y012038D01*
X012311Y012167D01*
X012331Y012187D01*
X012331Y010638D01*
X012179Y010638D01*
X012185Y010666D02*
X012331Y010666D01*
X012331Y010765D02*
X012185Y010765D01*
X012331Y010863D02*
X011916Y010863D01*
X012185Y010962D02*
X012331Y010962D01*
X012331Y011060D02*
X012233Y011060D01*
X012259Y011159D02*
X012331Y011159D01*
X012331Y011257D02*
X012259Y011257D01*
X012259Y011356D02*
X012331Y011356D01*
X012331Y011454D02*
X012259Y011454D01*
X012248Y011553D02*
X012331Y011553D01*
X012331Y011651D02*
X011981Y011651D01*
X011983Y011750D02*
X012331Y011750D01*
X012331Y011848D02*
X012032Y011848D01*
X012041Y011947D02*
X012331Y011947D01*
X012331Y012045D02*
X012189Y012045D01*
X012288Y012144D02*
X012331Y012144D01*
X012201Y012368D02*
X012091Y012258D01*
X011431Y012258D01*
X011411Y012258D01*
X011258Y012021D02*
X011267Y012012D01*
X011373Y011968D01*
X011461Y011968D01*
X011461Y011870D01*
X011505Y011764D01*
X011521Y011748D01*
X011521Y011641D01*
X011349Y011641D01*
X011262Y011554D01*
X011262Y011699D01*
X010926Y011699D01*
X010926Y011799D01*
X011262Y011799D01*
X011262Y012005D01*
X011258Y012021D01*
X011262Y011947D02*
X011461Y011947D01*
X011470Y011848D02*
X011262Y011848D01*
X011262Y011651D02*
X011521Y011651D01*
X011520Y011750D02*
X010926Y011750D01*
X010882Y011755D02*
X010874Y011763D01*
X010874Y012318D01*
X010824Y012341D02*
X010453Y012341D01*
X010488Y012368D02*
X010824Y012368D01*
X010824Y012268D01*
X010488Y012268D01*
X010488Y012062D01*
X010496Y012029D01*
X010490Y012005D01*
X010490Y011799D01*
X010826Y011799D01*
X010826Y011699D01*
X010490Y011699D01*
X010490Y011509D01*
X010468Y011487D01*
X010468Y010874D01*
X010504Y010838D01*
X010473Y010838D01*
X010446Y010866D01*
X010454Y010874D01*
X010454Y011441D01*
X010455Y011443D01*
X010455Y012056D01*
X010453Y012058D01*
X010453Y012624D01*
X010438Y012640D01*
X010482Y012685D01*
X010541Y012743D01*
X010541Y012743D01*
X010592Y012794D01*
X010599Y012794D01*
X010599Y012747D01*
X010617Y012704D01*
X010580Y012694D01*
X010545Y012674D01*
X010518Y012646D01*
X010498Y012612D01*
X010488Y012574D01*
X010488Y012368D01*
X010488Y012439D02*
X010453Y012439D01*
X010453Y012538D02*
X010488Y012538D01*
X010512Y012636D02*
X010441Y012636D01*
X010533Y012735D02*
X010604Y012735D01*
X010488Y012242D02*
X010453Y012242D01*
X010453Y012144D02*
X010488Y012144D01*
X010492Y012045D02*
X010455Y012045D01*
X010455Y011947D02*
X010490Y011947D01*
X010490Y011848D02*
X010455Y011848D01*
X010455Y011750D02*
X010826Y011750D01*
X010826Y011799D02*
X010826Y012136D01*
X010824Y012136D01*
X010824Y012268D01*
X010924Y012268D01*
X010924Y011931D01*
X010926Y011931D01*
X010926Y011799D01*
X010826Y011799D01*
X010826Y011848D02*
X010926Y011848D01*
X010924Y011947D02*
X010826Y011947D01*
X010826Y012045D02*
X010924Y012045D01*
X010924Y012144D02*
X010824Y012144D01*
X010824Y012242D02*
X010924Y012242D01*
X010490Y011651D02*
X010455Y011651D01*
X010455Y011553D02*
X010490Y011553D01*
X010468Y011454D02*
X010455Y011454D01*
X010454Y011356D02*
X010468Y011356D01*
X010454Y011257D02*
X010468Y011257D01*
X010454Y011159D02*
X010468Y011159D01*
X010454Y011060D02*
X010468Y011060D01*
X010454Y010962D02*
X010468Y010962D01*
X010479Y010863D02*
X010449Y010863D01*
X010847Y010774D02*
X010984Y010774D01*
X011028Y010730D01*
X011078Y010672D01*
X011078Y010611D01*
X011178Y010512D01*
X011317Y010512D01*
X011317Y010413D01*
X011287Y010443D01*
X011255Y010443D01*
X011235Y010464D01*
X010964Y010464D01*
X010943Y010443D01*
X010847Y010443D01*
X010883Y010479D01*
X010883Y010738D01*
X010847Y010774D01*
X010857Y010765D02*
X010993Y010765D01*
X011078Y010666D02*
X010883Y010666D01*
X010883Y010568D02*
X011122Y010568D01*
X011317Y010469D02*
X010873Y010469D01*
X010723Y010003D02*
X010497Y009776D01*
X010131Y009411D01*
X010131Y009278D01*
X010011Y009287D02*
X009930Y009287D01*
X009930Y009294D02*
X009801Y009423D01*
X009794Y009429D01*
X010011Y009429D01*
X010011Y009079D01*
X009941Y009009D01*
X009941Y009050D01*
X009930Y009061D01*
X009930Y009294D01*
X009930Y009189D02*
X010011Y009189D01*
X010011Y009090D02*
X009930Y009090D01*
X010011Y009386D02*
X009838Y009386D01*
X009420Y009681D02*
X009394Y009681D01*
X009384Y009645D02*
X009358Y009645D01*
X009437Y009724D01*
X009481Y009830D01*
X009481Y009946D01*
X009473Y009967D01*
X009552Y010046D01*
X009552Y010309D01*
X009526Y010335D01*
X009532Y010357D01*
X009532Y010434D01*
X009532Y010459D01*
X009826Y010459D01*
X009860Y010426D01*
X009860Y010375D01*
X009880Y010355D01*
X009880Y010296D01*
X009939Y010296D01*
X009939Y010296D01*
X009880Y010296D01*
X009880Y010205D01*
X009890Y010167D01*
X009910Y010133D01*
X009919Y010123D01*
X009776Y010123D01*
X009677Y010024D01*
X009677Y009938D01*
X009384Y009645D01*
X009460Y009780D02*
X009518Y009780D01*
X009481Y009878D02*
X009617Y009878D01*
X009677Y009977D02*
X009483Y009977D01*
X009552Y010075D02*
X009728Y010075D01*
X009888Y010174D02*
X009552Y010174D01*
X009552Y010272D02*
X009880Y010272D01*
X009864Y010371D02*
X009532Y010371D01*
X009532Y010434D02*
X009245Y010434D01*
X009532Y010434D01*
X009245Y010434D02*
X009245Y010434D01*
X010723Y010003D02*
X011099Y010003D01*
X011625Y010291D02*
X011936Y009980D01*
X011936Y009577D01*
X011529Y009189D02*
X011476Y009189D01*
X011476Y009090D02*
X011532Y009090D01*
X011549Y008992D02*
X011476Y008992D01*
X011476Y008893D02*
X011549Y008893D01*
X011559Y008795D02*
X011476Y008795D01*
X011476Y008696D02*
X011549Y008696D01*
X011549Y008598D02*
X011476Y008598D01*
X011476Y008499D02*
X011543Y008499D01*
X011529Y008401D02*
X011476Y008401D01*
X011503Y008302D02*
X011503Y008302D01*
X011503Y008204D02*
X011503Y008204D01*
X011503Y008105D02*
X011503Y008105D01*
X011503Y008007D02*
X011503Y008007D01*
X011503Y007963D02*
X011503Y007576D01*
X011621Y007576D01*
X011659Y007587D01*
X011693Y007606D01*
X011721Y007634D01*
X011741Y007668D01*
X011751Y007707D01*
X011751Y007733D01*
X012242Y007733D01*
X012331Y007822D01*
X012331Y007412D01*
X012327Y007422D01*
X012245Y007504D01*
X012139Y007548D01*
X012023Y007548D01*
X011917Y007504D01*
X011835Y007422D01*
X011791Y007316D01*
X011791Y007200D01*
X011831Y007104D01*
X011831Y006850D01*
X011811Y006870D01*
X011744Y006870D01*
X011744Y006956D01*
X011481Y007219D01*
X011481Y007256D01*
X011437Y007362D01*
X011355Y007444D01*
X011249Y007488D01*
X011133Y007488D01*
X011071Y007462D01*
X011071Y007733D01*
X011254Y007733D01*
X011254Y007707D01*
X011264Y007668D01*
X011284Y007634D01*
X011312Y007606D01*
X011346Y007587D01*
X011384Y007576D01*
X011503Y007576D01*
X011503Y007963D01*
X011503Y007963D01*
X011503Y007908D02*
X011503Y007908D01*
X011503Y007810D02*
X011503Y007810D01*
X011503Y007711D02*
X011503Y007711D01*
X011503Y007613D02*
X011503Y007613D01*
X011699Y007613D02*
X012331Y007613D01*
X012331Y007711D02*
X011751Y007711D01*
X011941Y007514D02*
X011071Y007514D01*
X011071Y007613D02*
X011306Y007613D01*
X011254Y007711D02*
X011071Y007711D01*
X011384Y007416D02*
X011832Y007416D01*
X011792Y007317D02*
X011456Y007317D01*
X011482Y007219D02*
X011791Y007219D01*
X011824Y007120D02*
X011580Y007120D01*
X011679Y007022D02*
X011831Y007022D01*
X011831Y006923D02*
X011744Y006923D01*
X011524Y006865D02*
X011191Y007198D01*
X010931Y006928D02*
X010931Y006855D01*
X010658Y006582D01*
X010641Y006923D02*
X009441Y006923D01*
X009441Y006825D02*
X010326Y006825D01*
X010272Y006726D02*
X009441Y006726D01*
X009441Y006628D02*
X010272Y006628D01*
X010272Y006529D02*
X009450Y006529D01*
X009536Y006431D02*
X010272Y006431D01*
X010292Y006332D02*
X009571Y006332D01*
X009571Y006234D02*
X010292Y006234D01*
X010292Y006135D02*
X009645Y006135D01*
X009883Y006037D02*
X010292Y006037D01*
X010272Y005938D02*
X010237Y005938D01*
X010241Y005840D02*
X010272Y005840D01*
X010272Y005741D02*
X010241Y005741D01*
X010241Y005643D02*
X010272Y005643D01*
X010241Y005544D02*
X010333Y005544D01*
X010339Y005446D02*
X010856Y005446D01*
X010963Y005347D02*
X010437Y005347D01*
X010536Y005249D02*
X011064Y005249D01*
X011164Y005150D02*
X010634Y005150D01*
X010733Y005052D02*
X010892Y005052D01*
X010796Y004953D02*
X010761Y004953D01*
X011051Y004798D02*
X011051Y004528D01*
X010251Y003728D01*
X011210Y005052D02*
X011265Y005052D01*
X011692Y005446D02*
X012331Y005446D01*
X012331Y005544D02*
X011812Y005544D01*
X011799Y005537D02*
X011833Y005556D01*
X011861Y005584D01*
X011881Y005618D01*
X011891Y005657D01*
X011891Y005785D01*
X011533Y005785D01*
X011533Y005804D01*
X011891Y005804D01*
X011891Y005932D01*
X011889Y005938D01*
X012331Y005938D01*
X012331Y005840D02*
X011891Y005840D01*
X011889Y005938D02*
X012041Y005938D01*
X012133Y005976D01*
X012203Y006047D01*
X012293Y006137D01*
X012331Y006228D01*
X012331Y007104D01*
X012331Y004223D01*
X012302Y004252D01*
X011881Y004252D01*
X011881Y005082D01*
X011882Y005083D01*
X011881Y005140D01*
X011881Y005196D01*
X011881Y005197D01*
X011881Y005199D01*
X011858Y005250D01*
X011837Y005302D01*
X011836Y005304D01*
X011835Y005305D01*
X011795Y005344D01*
X011755Y005384D01*
X011754Y005385D01*
X011609Y005526D01*
X011760Y005526D01*
X011799Y005537D01*
X011811Y005508D02*
X011524Y005794D01*
X011494Y006158D02*
X011211Y006158D01*
X010847Y005794D01*
X010658Y005794D01*
X011494Y006158D02*
X011524Y006188D01*
X011524Y006582D02*
X011524Y006865D01*
X012221Y007514D02*
X012331Y007514D01*
X012330Y007416D02*
X012331Y007416D01*
X012331Y007104D02*
X012331Y007104D01*
X012331Y007022D02*
X012331Y007022D01*
X012331Y006923D02*
X012331Y006923D01*
X012331Y006825D02*
X012331Y006825D01*
X012331Y006726D02*
X012331Y006726D01*
X012331Y006628D02*
X012331Y006628D01*
X012331Y006529D02*
X012331Y006529D01*
X012331Y006431D02*
X012331Y006431D01*
X012331Y006332D02*
X012331Y006332D01*
X012331Y006234D02*
X012331Y006234D01*
X012331Y006135D02*
X012292Y006135D01*
X012331Y006037D02*
X012193Y006037D01*
X012331Y005741D02*
X011891Y005741D01*
X011887Y005643D02*
X012331Y005643D01*
X012331Y005347D02*
X011792Y005347D01*
X011859Y005249D02*
X012331Y005249D01*
X012331Y005150D02*
X011881Y005150D01*
X011881Y005052D02*
X012331Y005052D01*
X012331Y004953D02*
X011881Y004953D01*
X011881Y004855D02*
X012331Y004855D01*
X012331Y004756D02*
X011881Y004756D01*
X011881Y004658D02*
X012331Y004658D01*
X012331Y004559D02*
X011881Y004559D01*
X011881Y004461D02*
X012331Y004461D01*
X012331Y004362D02*
X011881Y004362D01*
X011881Y004264D02*
X012331Y004264D01*
X011811Y005488D02*
X011811Y005508D01*
X010656Y007022D02*
X009431Y007022D01*
X009555Y007416D02*
X010104Y007416D01*
X010251Y007514D02*
X009634Y007514D01*
X009663Y007613D02*
X010104Y007613D01*
X010104Y007711D02*
X009762Y007711D01*
X009921Y007810D02*
X010136Y007810D01*
X010084Y007908D02*
X009971Y007908D01*
X010015Y008007D02*
X010084Y008007D01*
X009694Y007997D02*
X010644Y008947D01*
X011070Y008947D01*
X012318Y007810D02*
X012331Y007810D01*
X010713Y007120D02*
X010693Y007120D01*
X006929Y005643D02*
X006664Y005643D01*
X006727Y005544D02*
X006901Y005544D01*
X006901Y005446D02*
X006746Y005446D01*
X006733Y005347D02*
X006901Y005347D01*
X006901Y005249D02*
X006679Y005249D01*
X006527Y005150D02*
X006901Y005150D01*
X004077Y005938D02*
X004023Y005938D01*
X003187Y006431D02*
X002351Y006431D01*
X002474Y006529D02*
X003073Y006529D01*
X002974Y006628D02*
X002515Y006628D01*
X002519Y006726D02*
X002876Y006726D01*
X002777Y006825D02*
X002489Y006825D01*
X002410Y006923D02*
X002679Y006923D01*
X002580Y007022D02*
X002255Y007022D01*
X002157Y007120D02*
X002482Y007120D01*
X007491Y002097D02*
X008145Y002097D01*
X007993Y001998D02*
X007643Y001998D01*
X007742Y001900D02*
X007894Y001900D01*
X007843Y001801D02*
X007793Y001801D01*
X012201Y012368D02*
X012201Y012918D01*
X011731Y013388D01*
X011591Y013388D01*
D39*
X010889Y012805D03*
X010602Y012638D03*
X011431Y012258D03*
X011751Y011928D03*
X011034Y010567D03*
X010392Y010324D03*
X009819Y010280D03*
X009544Y010945D03*
X009521Y011458D03*
X009501Y011808D03*
X009994Y011584D03*
X009687Y012353D03*
X008545Y012656D03*
X008182Y012278D03*
X007082Y012214D03*
X006729Y011823D03*
X006237Y012935D03*
X006237Y013466D03*
X005166Y013296D03*
X004273Y013247D03*
X003655Y013441D03*
X002871Y013638D03*
X003205Y014126D03*
X002951Y012548D03*
X002941Y012008D03*
X001591Y013438D03*
X003457Y010102D03*
X004112Y008674D03*
X004371Y008097D03*
X005037Y007538D03*
X004701Y007191D03*
X005472Y007437D03*
X006644Y006654D03*
X006922Y005992D03*
X007550Y007255D03*
X008541Y007728D03*
X008649Y008426D03*
X008222Y008780D03*
X007909Y009551D03*
X007575Y009449D03*
X007141Y009888D03*
X005477Y011240D03*
X005008Y009268D03*
X005071Y008858D03*
X003680Y007900D03*
X002229Y006694D03*
X001488Y006447D03*
X001780Y008362D03*
X004254Y005659D03*
X003171Y003128D03*
X009281Y006288D03*
X009694Y007997D03*
X009405Y009355D03*
X009191Y009888D03*
X011191Y007198D03*
X010931Y006928D03*
X012081Y007258D03*
X011811Y005488D03*
X008241Y013413D03*
X009701Y013788D03*
D40*
X007281Y013389D02*
X007269Y013401D01*
X006777Y013401D02*
X006756Y013401D01*
X006406Y013751D01*
X006135Y013750D01*
X005962Y013581D01*
X005959Y012477D01*
X005835Y012353D01*
X003734Y012351D01*
X003360Y012725D01*
X003359Y013613D01*
X002875Y014097D01*
X001800Y014096D01*
X001532Y013832D01*
X001532Y013534D01*
X001935Y013130D01*
X002283Y013130D01*
X002288Y013155D01*
X002077Y013159D01*
X001488Y012570D01*
X001488Y008951D01*
X004979Y008951D01*
X005071Y008858D01*
X005246Y008683D01*
X006521Y008683D01*
X006445Y008607D01*
X006445Y007867D01*
X006629Y007683D01*
X007033Y007683D01*
X006929Y007686D02*
X007893Y007686D01*
X008211Y007368D01*
X010339Y007368D01*
X010451Y007480D01*
X010598Y008002D02*
X011070Y008002D01*
X010598Y008002D02*
X010451Y008149D01*
X009724Y007967D02*
X009694Y007997D01*
X009380Y007683D01*
X009159Y007683D01*
X008222Y008780D02*
X007646Y008204D01*
X007103Y008204D01*
X007033Y008683D02*
X006521Y008683D01*
X005474Y007451D02*
X005472Y007437D01*
X005655Y007255D01*
X007550Y007255D01*
X006644Y006654D02*
X003302Y006654D01*
X002620Y007335D01*
X002620Y007749D01*
X002614Y007755D01*
X002614Y008237D01*
X001780Y008362D02*
X001780Y007154D01*
X001786Y007148D01*
X001786Y007137D01*
X002229Y006694D01*
X001488Y006447D02*
X001488Y008951D01*
X002533Y009678D02*
X002533Y010014D01*
X002526Y010021D01*
X002533Y009678D02*
X002964Y009248D01*
X004982Y009248D01*
X005477Y011240D02*
X005457Y011247D01*
X005006Y011696D01*
X006237Y012935D02*
X006237Y013466D01*
X006237Y013515D01*
X002077Y013159D02*
X002026Y013159D01*
X009159Y009183D02*
X009273Y009174D01*
X011752Y011286D02*
X011754Y011314D01*
X012081Y007258D02*
X012081Y006278D01*
X011991Y006188D01*
X011524Y006188D01*
X008825Y005888D02*
X008465Y005888D01*
X008321Y005744D01*
X003312Y005101D02*
X003213Y005101D01*
X003194Y005120D02*
X003112Y005038D01*
X002491Y005038D01*
X002299Y004846D01*
X002299Y004585D01*
X002299Y004470D01*
X002299Y004585D02*
X002301Y004587D01*
X002301Y004038D02*
X002331Y004008D01*
X003224Y004371D02*
X003234Y004371D01*
D41*
X004924Y007544D02*
X004371Y008097D01*
X004924Y007544D02*
X005038Y007544D01*
X005469Y007440D02*
X005472Y007437D01*
X006929Y007686D02*
X007033Y007683D01*
X007033Y008183D02*
X007103Y008204D01*
X005061Y009228D02*
X005008Y009268D01*
X004982Y009248D01*
X003457Y009970D02*
X003395Y009908D01*
X003457Y009970D02*
X003457Y010102D01*
X005505Y011551D02*
X005505Y011880D01*
X005690Y012065D01*
X005960Y012065D01*
X006591Y012696D01*
X007102Y012697D01*
X007147Y012740D01*
X007279Y012871D01*
X007281Y013389D01*
X008171Y012542D02*
X008172Y012313D01*
X008182Y012008D01*
X008407Y012542D02*
X008521Y012656D01*
X008545Y012656D01*
X007951Y010688D02*
X007120Y010688D01*
X007119Y010689D01*
X007951Y010688D02*
X008206Y010434D01*
X009245Y010434D01*
X009663Y010434D01*
X009819Y010280D01*
X010095Y010516D02*
X009921Y010689D01*
X009245Y010689D01*
X010095Y010516D02*
X010200Y010516D01*
X010392Y010324D01*
X011034Y010567D02*
X011044Y010578D01*
X011751Y011311D02*
X011751Y011928D01*
X011754Y011314D02*
X011751Y011311D01*
X006971Y005992D02*
X006922Y005992D01*
X008321Y005232D02*
X008321Y004598D01*
X008281Y004558D01*
X008946Y005058D02*
X009356Y004648D01*
X009356Y004584D01*
X009381Y004558D01*
X009761Y004398D02*
X009871Y004508D01*
X009871Y004993D01*
X009861Y004983D01*
X010061Y005398D02*
X010531Y004928D01*
X010531Y004728D01*
X010061Y005398D02*
X008981Y005398D01*
X009337Y005888D02*
X009706Y005888D01*
X009871Y005723D01*
X005912Y011144D02*
X005505Y011551D01*
X005960Y012065D02*
X005960Y012065D01*
X005166Y013296D02*
X005166Y013316D01*
X005347Y013497D01*
X004279Y013348D02*
X004273Y013342D01*
X004273Y013247D01*
X003433Y008026D02*
X003559Y007900D01*
X003680Y007900D01*
D42*
X003670Y005923D02*
X003079Y005923D01*
X002422Y005923D01*
X002300Y005804D01*
X002300Y005548D01*
X002299Y005494D01*
X001925Y005494D02*
X001478Y005498D01*
X001390Y005386D01*
X001390Y004677D02*
X001572Y004468D01*
X001925Y004470D01*
X002673Y004470D02*
X003056Y004470D01*
X003194Y004411D01*
X003213Y005101D02*
X003194Y005120D01*
X003293Y005120D01*
X003932Y005661D02*
X003670Y005923D01*
X003932Y005661D02*
X004200Y005386D01*
X004265Y005251D01*
D43*
X003129Y005444D02*
X002723Y005444D01*
X002673Y005494D01*
X004567Y009647D02*
X004878Y009958D01*
X005074Y009958D01*
X005074Y010179D02*
X005394Y010179D01*
X005543Y010029D01*
X006826Y009856D02*
X006841Y009840D01*
X006538Y011966D02*
X006474Y011972D01*
X006538Y011966D02*
X006786Y012214D01*
X007082Y012214D01*
D44*
X004254Y005659D02*
X004265Y005579D01*
X004265Y005251D01*
X003312Y005101D02*
X004265Y004148D01*
D45*
X004881Y003578D02*
X003611Y003578D01*
X003194Y003995D01*
X003194Y004411D01*
X002301Y004587D02*
X002301Y004038D01*
X002301Y003568D01*
X002331Y003538D01*
X003171Y003128D02*
X005361Y003128D01*
X007191Y004958D01*
X007191Y005518D01*
X007961Y006288D01*
X009281Y006288D01*
X008825Y005888D02*
X008825Y005554D01*
X008981Y005398D01*
X008321Y005744D02*
X008317Y005748D01*
X008091Y005748D01*
X007615Y005272D01*
X007615Y004794D01*
X007611Y004798D01*
X007611Y004258D01*
X008271Y003598D01*
X008861Y003598D01*
X008941Y003258D01*
X007761Y003088D02*
X008971Y001868D01*
X009261Y001928D01*
X009251Y002018D02*
X011591Y002018D01*
X011591Y003488D02*
X011591Y005138D01*
X011101Y005618D01*
X008371Y007038D02*
X007968Y007038D01*
X006922Y005992D01*
X006922Y006041D01*
X006689Y006273D01*
X001662Y006273D01*
X001488Y006447D01*
X004881Y003578D02*
X005261Y003958D01*
X005261Y004788D01*
X005911Y005438D01*
X006451Y005438D01*
X008941Y001938D02*
X009251Y002018D01*
D46*
X010031Y006188D02*
X010658Y006188D01*
X010031Y006188D02*
X009181Y007038D01*
X008371Y007038D01*
X011034Y010567D02*
X011606Y010567D01*
X011898Y010859D01*
X011386Y010859D02*
X011181Y010874D01*
X010874Y011181D01*
X008693Y012008D02*
X008691Y012011D01*
X008691Y012112D01*
D47*
X010131Y009278D03*
X008371Y007038D03*
X008981Y005398D03*
X008946Y005058D03*
X009761Y004398D03*
X010251Y003728D03*
X010531Y004728D03*
X011051Y004798D03*
X011101Y005618D03*
X007761Y003088D03*
X007051Y003188D03*
X007051Y004008D03*
X007611Y004798D03*
X006451Y005438D03*
X003481Y005568D03*
X002331Y003538D03*
M02*
