%
M48
M72
T01C0.0080
T02C0.0090
T03C0.0197
T04C0.0335
T05C0.0354
T06C0.0591
%
T01
X3171Y3128
X4254Y5659
X4701Y7191
X5037Y7538
X5472Y7437
X4371Y8097
X4112Y8674
X3680Y7900
X2229Y6694
X1488Y6447
X1780Y8362
X3457Y10102
X5008Y9268
X5071Y8858
X7141Y9888
X7575Y9449
X7909Y9551
X8222Y8780
X8649Y8426
X8541Y7728
X7550Y7255
X6644Y6654
X6922Y5992
X9281Y6288
X9694Y7997
X9405Y9355
X9191Y9888
X9819Y10280
X10392Y10324
X11034Y10567
X9994Y11584
X9521Y11458
X9501Y11808
X9687Y12353
X10602Y12638
X10889Y12805
X11431Y12258
X11751Y11928
X9701Y13788
X8545Y12656
X8182Y12278
X7082Y12214
X6729Y11823
X6237Y12935
X6237Y13466
X5166Y13296
X4273Y13247
X3655Y13441
X2871Y13638
X3205Y14126
X2951Y12548
X2941Y12008
X1591Y13438
X5477Y11240
X8241Y13413
X9544Y10945
X11191Y7198
X10931Y6928
X12081Y7258
X11811Y5488
T02
X11101Y5618
X11051Y4798
X10531Y4728
X9761Y4398
X10251Y3728
X8946Y5058
X8981Y5398
X7611Y4798
X7051Y4008
X7051Y3188
X7761Y3088
X6451Y5438
X8371Y7038
X10131Y9278
X3481Y5568
X2331Y3538
T03
X2283Y12146
X2283Y12638
X2283Y13130
X2283Y13622
X6777Y13401
X7269Y13401
X7761Y13401
X8253Y13401
X8745Y13401
X10111Y13401
X10603Y13401
X11095Y13401
X11587Y13401
T04
X4237Y2768
X2485Y2768
T05
X7227Y1527
X8409Y1527
T06
X1752Y1538
X4970Y1542
M30
