G75*
%MOIN*%
%OFA0B0*%
%FSLAX24Y24*%
%IPPOS*%
%LPD*%
%AMOC8*
5,1,8,0,0,1.08239X$1,22.5*
%
%ADD10R,0.0434X0.0356*%
%ADD11R,0.0580X0.0680*%
%ADD12R,0.0356X0.0434*%
%ADD13R,0.0356X0.0671*%
%ADD14R,0.0474X0.0395*%
%ADD15C,0.0434*%
%ADD16R,0.0454X0.0198*%
%ADD17R,0.0198X0.0454*%
%ADD18R,0.0789X0.0710*%
%ADD19R,0.0474X0.0513*%
%ADD20C,0.0477*%
%ADD21R,0.0210X0.0222*%
%ADD22R,0.0710X0.0789*%
%ADD23R,0.0709X0.0709*%
%ADD24R,0.0415X0.0190*%
%ADD25R,0.0190X0.0415*%
%ADD26R,0.0198X0.0198*%
%ADD27R,0.1185X0.0791*%
%ADD28R,0.1010X0.0738*%
%ADD29R,0.1015X0.0743*%
%ADD30R,0.0237X0.0611*%
%ADD31C,0.0966*%
%ADD32R,0.0330X0.0580*%
%ADD33R,0.0580X0.0330*%
%ADD34C,0.0415*%
%ADD35C,0.0320*%
%ADD36C,0.0330*%
D10*
X010004Y010837D03*
X010004Y011349D03*
D11*
X008908Y010889D03*
X008908Y009089D03*
D12*
X009715Y006498D03*
X010227Y006498D03*
X008967Y005788D03*
X008897Y006238D03*
X008455Y005788D03*
X008385Y006238D03*
X010885Y004308D03*
X011397Y004308D03*
X011617Y005248D03*
X011105Y005248D03*
X009421Y012350D03*
X008909Y012350D03*
D13*
X008704Y002216D03*
X007523Y002216D03*
X006932Y002216D03*
D14*
X006381Y001940D03*
X006381Y001113D03*
X009255Y001113D03*
X009255Y001940D03*
D15*
X008409Y001527D03*
X007227Y001527D03*
D16*
X006086Y005996D03*
X006086Y006252D03*
X006086Y006508D03*
X006086Y006764D03*
X004589Y006764D03*
X004589Y006508D03*
X004589Y006252D03*
X004589Y005996D03*
X004913Y010694D03*
X004913Y010950D03*
X004913Y011206D03*
X004913Y011462D03*
X006409Y011462D03*
X006409Y011206D03*
X006409Y010950D03*
X006409Y010694D03*
D17*
X006045Y010330D03*
X005789Y010330D03*
X005533Y010330D03*
X005277Y010330D03*
X005277Y011826D03*
X005533Y011826D03*
X005789Y011826D03*
X006045Y011826D03*
X005721Y007128D03*
X005465Y007128D03*
X005210Y007128D03*
X004954Y007128D03*
X004954Y005632D03*
X005210Y005632D03*
X005465Y005632D03*
X005721Y005632D03*
D18*
X008001Y010497D03*
X008001Y011599D03*
D19*
X007334Y011364D03*
X007334Y012033D03*
X003684Y006990D03*
X003684Y006321D03*
D20*
X002481Y012146D02*
X002084Y012146D01*
X002084Y012638D02*
X002481Y012638D01*
X002481Y013130D02*
X002084Y013130D01*
X002084Y013622D02*
X002481Y013622D01*
X006777Y013599D02*
X006777Y013203D01*
X007269Y013203D02*
X007269Y013599D01*
X007761Y013599D02*
X007761Y013203D01*
X008253Y013203D02*
X008253Y013599D01*
X008745Y013599D02*
X008745Y013203D01*
X010111Y013203D02*
X010111Y013599D01*
X010603Y013599D02*
X010603Y013203D01*
X011095Y013203D02*
X011095Y013599D01*
X011587Y013599D02*
X011587Y013203D01*
D21*
X006889Y011454D03*
X006889Y011234D03*
X004149Y006250D03*
X004149Y006029D03*
D22*
X004902Y008128D03*
X006004Y008128D03*
D23*
X009961Y005358D03*
D24*
X010542Y005260D03*
X010542Y005063D03*
X010542Y005457D03*
X010542Y005653D03*
X009380Y005653D03*
X009380Y005457D03*
X009380Y005260D03*
X009380Y005063D03*
D25*
X009666Y004777D03*
X009863Y004777D03*
X010060Y004777D03*
X010256Y004777D03*
X010256Y005939D03*
X010060Y005939D03*
X009863Y005939D03*
X009666Y005939D03*
D26*
X010761Y006460D03*
X010761Y006696D03*
D27*
X003363Y001536D03*
D28*
X004895Y001538D03*
D29*
X001825Y001536D03*
D30*
X002849Y002591D03*
X003105Y002591D03*
X003361Y002591D03*
X003617Y002591D03*
X003873Y002591D03*
D31*
X001752Y001538D03*
X004970Y001542D03*
D32*
X004531Y002778D03*
X002191Y002778D03*
D33*
X002461Y003058D03*
X002431Y002468D03*
X004291Y002468D03*
X004251Y003058D03*
D34*
X004237Y002768D03*
X002485Y002768D03*
D35*
X003171Y003128D03*
X004254Y005659D03*
X004701Y007191D03*
X005037Y007538D03*
X005472Y007437D03*
X004371Y008097D03*
X004112Y008674D03*
X003680Y007900D03*
X002229Y006694D03*
X001488Y006447D03*
X001780Y008362D03*
X003457Y010102D03*
X005008Y009268D03*
X005071Y008858D03*
X007141Y009888D03*
X007575Y009449D03*
X007909Y009551D03*
X008222Y008780D03*
X008649Y008426D03*
X008541Y007728D03*
X007550Y007255D03*
X006644Y006654D03*
X006922Y005992D03*
X009281Y006288D03*
X009694Y007997D03*
X009405Y009355D03*
X009191Y009888D03*
X009819Y010280D03*
X010392Y010324D03*
X011034Y010567D03*
X009994Y011584D03*
X009521Y011458D03*
X009501Y011808D03*
X009687Y012353D03*
X010602Y012638D03*
X010889Y012805D03*
X011431Y012258D03*
X011751Y011928D03*
X009701Y013788D03*
X008545Y012656D03*
X008182Y012278D03*
X007082Y012214D03*
X006729Y011823D03*
X006237Y012935D03*
X006237Y013466D03*
X005166Y013296D03*
X004273Y013247D03*
X003655Y013441D03*
X002871Y013638D03*
X003205Y014126D03*
X002951Y012548D03*
X002941Y012008D03*
X001591Y013438D03*
X005477Y011240D03*
X008241Y013413D03*
X009544Y010945D03*
X011191Y007198D03*
X010931Y006928D03*
X012081Y007258D03*
X011811Y005488D03*
D36*
X011101Y005618D03*
X011051Y004798D03*
X010531Y004728D03*
X009761Y004398D03*
X010251Y003728D03*
X008946Y005058D03*
X008981Y005398D03*
X007611Y004798D03*
X007051Y004008D03*
X007051Y003188D03*
X007761Y003088D03*
X006451Y005438D03*
X008371Y007038D03*
X010131Y009278D03*
X003481Y005568D03*
X002331Y003538D03*
M02*
