G75*
%MOIN*%
%OFA0B0*%
%FSLAX24Y24*%
%IPPOS*%
%LPD*%
%AMOC8*
5,1,8,0,0,1.08239X$1,22.5*
%
%ADD10R,0.0354X0.0276*%
%ADD11R,0.0500X0.0600*%
%ADD12R,0.0276X0.0354*%
%ADD13R,0.0276X0.0591*%
%ADD14R,0.0394X0.0315*%
%ADD15R,0.0374X0.0118*%
%ADD16R,0.0118X0.0374*%
%ADD17R,0.0827X0.0827*%
%ADD18R,0.0709X0.0630*%
%ADD19R,0.0394X0.0433*%
%ADD20C,0.0397*%
%ADD21R,0.0130X0.0142*%
%ADD22R,0.0630X0.0709*%
%ADD23R,0.0669X0.0669*%
%ADD24R,0.0091X0.0193*%
%ADD25R,0.0031X0.0028*%
%ADD26R,0.0020X0.0016*%
%ADD27R,0.0335X0.0110*%
%ADD28R,0.0110X0.0335*%
%ADD29R,0.0118X0.0118*%
%ADD30R,0.1142X0.0748*%
%ADD31R,0.1083X0.1063*%
%ADD32R,0.0157X0.0531*%
%ADD33C,0.0886*%
%ADD34R,0.0250X0.0500*%
%ADD35R,0.0500X0.0250*%
%ADD36C,0.0240*%
%ADD37C,0.0100*%
%ADD38C,0.0060*%
%ADD39C,0.0160*%
%ADD40C,0.0120*%
%ADD41C,0.0250*%
%ADD42C,0.0240*%
%ADD43C,0.0320*%
%ADD44C,0.0050*%
%ADD45C,0.0080*%
D10*
X010004Y010837D03*
X010004Y011349D03*
D11*
X008908Y010889D03*
X008908Y009089D03*
D12*
X009715Y006498D03*
X010227Y006498D03*
X008967Y005788D03*
X008897Y006238D03*
X008455Y005788D03*
X008385Y006238D03*
X010885Y004308D03*
X011397Y004308D03*
X011617Y005248D03*
X011105Y005248D03*
X009421Y012350D03*
X008909Y012350D03*
D13*
X008704Y002216D03*
X007523Y002216D03*
X006932Y002216D03*
D14*
X006381Y001940D03*
X006381Y001113D03*
X009255Y001113D03*
X009255Y001940D03*
D15*
X006086Y005996D03*
X006086Y006252D03*
X006086Y006508D03*
X006086Y006764D03*
X004589Y006764D03*
X004589Y006508D03*
X004589Y006252D03*
X004589Y005996D03*
X004913Y010694D03*
X004913Y010950D03*
X004913Y011206D03*
X004913Y011462D03*
X006409Y011462D03*
X006409Y011206D03*
X006409Y010950D03*
X006409Y010694D03*
D16*
X006045Y010330D03*
X005789Y010330D03*
X005533Y010330D03*
X005277Y010330D03*
X005277Y011826D03*
X005533Y011826D03*
X005789Y011826D03*
X006045Y011826D03*
X005721Y007128D03*
X005465Y007128D03*
X005210Y007128D03*
X004954Y007128D03*
X004954Y005632D03*
X005210Y005632D03*
X005465Y005632D03*
X005721Y005632D03*
D17*
X005338Y006380D03*
X005661Y011078D03*
D18*
X008001Y011599D03*
X008001Y010497D03*
D19*
X007334Y011364D03*
X007334Y012033D03*
X003684Y006990D03*
X003684Y006321D03*
D20*
X002481Y012146D02*
X002084Y012146D01*
X002084Y012638D02*
X002481Y012638D01*
X002481Y013130D02*
X002084Y013130D01*
X002084Y013622D02*
X002481Y013622D01*
X006777Y013599D02*
X006777Y013203D01*
X007269Y013203D02*
X007269Y013599D01*
X007761Y013599D02*
X007761Y013203D01*
X008253Y013203D02*
X008253Y013599D01*
X008745Y013599D02*
X008745Y013203D01*
X010111Y013203D02*
X010111Y013599D01*
X010603Y013599D02*
X010603Y013203D01*
X011095Y013203D02*
X011095Y013599D01*
X011587Y013599D02*
X011587Y013203D01*
D21*
X006889Y011454D03*
X006889Y011234D03*
X004149Y006250D03*
X004149Y006029D03*
D22*
X004902Y008128D03*
X006004Y008128D03*
D23*
X009961Y005358D03*
D24*
X009672Y005029D03*
D25*
X009725Y005025D03*
D26*
X009715Y005008D03*
D27*
X009380Y005063D03*
X009380Y005260D03*
X009380Y005457D03*
X009380Y005653D03*
X010542Y005653D03*
X010542Y005457D03*
X010542Y005260D03*
X010542Y005063D03*
D28*
X010256Y004777D03*
X010060Y004777D03*
X009863Y004777D03*
X009666Y004777D03*
X009666Y005939D03*
X009863Y005939D03*
X010060Y005939D03*
X010256Y005939D03*
D29*
X010761Y006460D03*
X010761Y006696D03*
D30*
X003361Y001538D03*
D31*
X004926Y001538D03*
X001796Y001538D03*
D32*
X002849Y002591D03*
X003105Y002591D03*
X003361Y002591D03*
X003617Y002591D03*
X003873Y002591D03*
D33*
X001752Y001538D03*
X004970Y001542D03*
D34*
X004531Y002778D03*
X002191Y002778D03*
D35*
X002461Y003058D03*
X002431Y002468D03*
X004291Y002468D03*
X004251Y003058D03*
D36*
X003171Y003128D03*
X004254Y005659D03*
X004701Y007191D03*
X005037Y007538D03*
X005472Y007437D03*
X004371Y008097D03*
X004112Y008674D03*
X003680Y007900D03*
X002229Y006694D03*
X001488Y006447D03*
X001780Y008362D03*
X003457Y010102D03*
X005008Y009268D03*
X005071Y008858D03*
X007141Y009888D03*
X007575Y009449D03*
X007909Y009551D03*
X008222Y008780D03*
X008649Y008426D03*
X008541Y007728D03*
X007550Y007255D03*
X006644Y006654D03*
X006922Y005992D03*
X009281Y006288D03*
X009694Y007997D03*
X009405Y009355D03*
X009191Y009888D03*
X009819Y010280D03*
X010392Y010324D03*
X011034Y010567D03*
X009994Y011584D03*
X009521Y011458D03*
X009501Y011808D03*
X009687Y012353D03*
X010602Y012638D03*
X010889Y012805D03*
X011431Y012258D03*
X011751Y011928D03*
X009701Y013788D03*
X008545Y012656D03*
X008182Y012278D03*
X007082Y012214D03*
X006729Y011823D03*
X006237Y012935D03*
X006237Y013466D03*
X005166Y013296D03*
X004273Y013247D03*
X003655Y013441D03*
X002871Y013638D03*
X003205Y014126D03*
X002951Y012548D03*
X002941Y012008D03*
X001591Y013438D03*
X005477Y011240D03*
X008241Y013413D03*
X009544Y010945D03*
X011191Y007198D03*
X010931Y006928D03*
X012081Y007258D03*
X011811Y005488D03*
D37*
X011617Y005682D01*
X011617Y006092D01*
X011021Y006688D01*
X010769Y006688D01*
X010761Y006696D01*
X010489Y006968D01*
X009901Y006968D01*
X009715Y006782D01*
X008371Y006782D01*
X008371Y007038D01*
X008371Y006782D02*
X008371Y006252D01*
X008381Y006242D01*
X008366Y006234D02*
X007889Y006234D01*
X007843Y006280D02*
X007841Y006282D01*
X007841Y007192D01*
X008271Y007622D01*
X008295Y007564D01*
X008377Y007482D01*
X008483Y007438D01*
X008599Y007438D01*
X008705Y007482D01*
X008731Y007508D01*
X008880Y007508D01*
X009440Y006948D01*
X010600Y006948D01*
X010641Y006907D01*
X010641Y006893D01*
X010610Y006875D01*
X010582Y006847D01*
X010562Y006813D01*
X010552Y006775D01*
X010552Y006696D01*
X010552Y006617D01*
X010554Y006611D01*
X010535Y006592D01*
X010535Y006746D01*
X010435Y006845D01*
X010019Y006845D01*
X009957Y006783D01*
X009945Y006795D01*
X009911Y006815D01*
X009873Y006825D01*
X009734Y006825D01*
X009734Y006517D01*
X009696Y006517D01*
X009696Y006825D01*
X009558Y006825D01*
X009520Y006815D01*
X009485Y006795D01*
X009457Y006767D01*
X009438Y006733D01*
X009427Y006695D01*
X009427Y006541D01*
X009339Y006578D01*
X009223Y006578D01*
X009145Y006546D01*
X009105Y006585D01*
X008689Y006585D01*
X008627Y006523D01*
X008615Y006535D01*
X008581Y006555D01*
X008543Y006565D01*
X008404Y006565D01*
X008404Y006257D01*
X008366Y006257D01*
X008366Y006219D01*
X008097Y006219D01*
X008097Y006041D01*
X008103Y006020D01*
X007843Y006280D01*
X007841Y006332D02*
X008097Y006332D01*
X008097Y006257D02*
X008097Y006435D01*
X008108Y006473D01*
X008127Y006507D01*
X008155Y006535D01*
X008190Y006555D01*
X008228Y006565D01*
X008366Y006565D01*
X008366Y006257D01*
X008097Y006257D01*
X008097Y006135D02*
X007988Y006135D01*
X008086Y006037D02*
X008099Y006037D01*
X008097Y006431D02*
X007841Y006431D01*
X007841Y006529D02*
X008149Y006529D01*
X008366Y006529D02*
X008404Y006529D01*
X008404Y006431D02*
X008366Y006431D01*
X008366Y006332D02*
X008404Y006332D01*
X008621Y006529D02*
X008633Y006529D01*
X009268Y007120D02*
X007841Y007120D01*
X007841Y007022D02*
X009367Y007022D01*
X009531Y007168D02*
X008971Y007728D01*
X008541Y007728D01*
X008275Y007613D02*
X008262Y007613D01*
X008345Y007514D02*
X008163Y007514D01*
X008065Y007416D02*
X008973Y007416D01*
X009071Y007317D02*
X007966Y007317D01*
X007868Y007219D02*
X009170Y007219D01*
X009531Y007168D02*
X010691Y007168D01*
X010931Y006928D01*
X011139Y006726D02*
X011831Y006726D01*
X011831Y006628D02*
X010970Y006628D01*
X010970Y006638D02*
X010989Y006638D01*
X011095Y006682D01*
X011177Y006764D01*
X011221Y006870D01*
X011221Y006908D01*
X011249Y006908D01*
X011355Y006952D01*
X011437Y007034D01*
X011481Y007140D01*
X011481Y007256D01*
X011437Y007362D01*
X011355Y007444D01*
X011249Y007488D01*
X011202Y007488D01*
X010942Y007748D01*
X009851Y007748D01*
X009858Y007751D01*
X009940Y007833D01*
X009984Y007939D01*
X009984Y008055D01*
X009940Y008161D01*
X009858Y008243D01*
X009821Y008258D01*
X009821Y010530D01*
X010187Y010530D01*
X010146Y010488D01*
X010102Y010382D01*
X010102Y010266D01*
X010146Y010160D01*
X010228Y010078D01*
X010334Y010034D01*
X010450Y010034D01*
X010556Y010078D01*
X010638Y010160D01*
X010678Y010256D01*
X011963Y011542D01*
X012001Y011633D01*
X012001Y011774D01*
X012037Y011860D01*
X012235Y012059D01*
X012273Y012150D01*
X012273Y013917D01*
X012331Y013917D01*
X012273Y013917D02*
X012235Y014009D01*
X011994Y014250D01*
X011975Y014268D01*
X012331Y014268D01*
X012331Y007412D01*
X012327Y007422D01*
X012245Y007504D01*
X012139Y007548D01*
X012023Y007548D01*
X011917Y007504D01*
X011835Y007422D01*
X011791Y007316D01*
X011791Y007200D01*
X011831Y007104D01*
X011831Y005554D01*
X011813Y005565D01*
X011775Y005575D01*
X011636Y005575D01*
X011636Y005267D01*
X011598Y005267D01*
X011598Y005575D01*
X011459Y005575D01*
X011421Y005565D01*
X011398Y005552D01*
X011400Y005558D01*
X011396Y005591D01*
X011396Y005677D01*
X011351Y005785D01*
X011268Y005868D01*
X011160Y005913D01*
X011042Y005913D01*
X010934Y005868D01*
X010862Y005796D01*
X010780Y005879D01*
X010762Y005879D01*
X010762Y006150D01*
X010843Y006231D01*
X010891Y006231D01*
X010990Y006331D01*
X010990Y006590D01*
X010969Y006611D01*
X010970Y006617D01*
X010970Y006638D01*
X010990Y006529D02*
X011831Y006529D01*
X011831Y006431D02*
X010990Y006431D01*
X010990Y006332D02*
X011831Y006332D01*
X011831Y006234D02*
X010893Y006234D01*
X010762Y006135D02*
X011831Y006135D01*
X011831Y006037D02*
X010762Y006037D01*
X010762Y005938D02*
X011831Y005938D01*
X011831Y005840D02*
X011297Y005840D01*
X011369Y005741D02*
X011831Y005741D01*
X011831Y005643D02*
X011396Y005643D01*
X011617Y005682D02*
X011617Y005248D01*
X011617Y004528D01*
X011397Y004308D01*
X011416Y004289D02*
X011416Y004327D01*
X011685Y004327D01*
X011685Y004505D01*
X011675Y004543D01*
X011655Y004577D01*
X011627Y004605D01*
X011593Y004625D01*
X011555Y004635D01*
X011416Y004635D01*
X011416Y004327D01*
X011378Y004327D01*
X011378Y004635D01*
X011303Y004635D01*
X011346Y004739D01*
X011346Y004857D01*
X011324Y004911D01*
X011375Y004963D01*
X011387Y004951D01*
X011421Y004931D01*
X011459Y004921D01*
X011598Y004921D01*
X011598Y005229D01*
X011636Y005229D01*
X011636Y004921D01*
X011775Y004921D01*
X011813Y004931D01*
X011831Y004942D01*
X011831Y004052D01*
X011808Y004028D01*
X011644Y004028D01*
X011655Y004039D01*
X011675Y004073D01*
X011685Y004111D01*
X011685Y004289D01*
X011416Y004289D01*
X011416Y004362D02*
X011378Y004362D01*
X011378Y004461D02*
X011416Y004461D01*
X011416Y004559D02*
X011378Y004559D01*
X011312Y004658D02*
X011831Y004658D01*
X011831Y004756D02*
X011346Y004756D01*
X011346Y004855D02*
X011831Y004855D01*
X011636Y004953D02*
X011598Y004953D01*
X011598Y005052D02*
X011636Y005052D01*
X011636Y005150D02*
X011598Y005150D01*
X011598Y005347D02*
X011636Y005347D01*
X011636Y005446D02*
X011598Y005446D01*
X011598Y005544D02*
X011636Y005544D01*
X011105Y005248D02*
X011007Y005457D01*
X010905Y005840D02*
X010818Y005840D01*
X010542Y005653D02*
X010542Y006241D01*
X010761Y006460D01*
X010753Y006696D02*
X010552Y006696D01*
X010753Y006696D01*
X010753Y006696D01*
X010625Y006923D02*
X007841Y006923D01*
X007841Y006825D02*
X009555Y006825D01*
X009696Y006825D02*
X009734Y006825D01*
X009734Y006726D02*
X009696Y006726D01*
X009696Y006628D02*
X009734Y006628D01*
X009734Y006529D02*
X009696Y006529D01*
X009427Y006628D02*
X007841Y006628D01*
X007841Y006726D02*
X009436Y006726D01*
X009875Y006825D02*
X009998Y006825D01*
X010456Y006825D02*
X010569Y006825D01*
X010552Y006726D02*
X010535Y006726D01*
X010535Y006628D02*
X010552Y006628D01*
X011202Y006825D02*
X011831Y006825D01*
X011831Y006923D02*
X011285Y006923D01*
X011425Y007022D02*
X011831Y007022D01*
X011824Y007120D02*
X011473Y007120D01*
X011481Y007219D02*
X011791Y007219D01*
X011792Y007317D02*
X011456Y007317D01*
X011384Y007416D02*
X011832Y007416D01*
X011941Y007514D02*
X011176Y007514D01*
X011078Y007613D02*
X012331Y007613D01*
X012331Y007711D02*
X010979Y007711D01*
X010851Y007528D02*
X011181Y007198D01*
X011191Y007198D01*
X010851Y007528D02*
X009547Y007528D01*
X008649Y008426D01*
X007972Y008401D02*
X006469Y008401D01*
X006469Y008499D02*
X007972Y008499D01*
X007972Y008585D02*
X007972Y008030D01*
X007482Y007540D01*
X007386Y007500D01*
X007304Y007419D01*
X007260Y007312D01*
X007260Y007197D01*
X007261Y007194D01*
X007261Y006178D01*
X006811Y005728D01*
X006522Y005728D01*
X006510Y005733D01*
X006392Y005733D01*
X006284Y005688D01*
X006201Y005605D01*
X006156Y005497D01*
X006156Y005379D01*
X006201Y005271D01*
X006284Y005188D01*
X006392Y005143D01*
X006510Y005143D01*
X006522Y005148D01*
X006989Y005148D01*
X007095Y005192D01*
X007177Y005274D01*
X007659Y005756D01*
X007741Y005675D01*
X007741Y005064D01*
X007670Y005093D01*
X007552Y005093D01*
X007540Y005088D01*
X005226Y005088D01*
X005040Y005275D01*
X005851Y005275D01*
X005950Y005374D01*
X005950Y005778D01*
X006082Y005778D01*
X006091Y005787D01*
X006292Y005787D01*
X006330Y005797D01*
X006365Y005817D01*
X006393Y005845D01*
X006412Y005879D01*
X006423Y005917D01*
X006423Y005996D01*
X006423Y006075D01*
X006417Y006096D01*
X006443Y006122D01*
X006443Y006278D01*
X006593Y006278D01*
X006679Y006364D01*
X006701Y006364D01*
X006808Y006408D01*
X006890Y006489D01*
X006934Y006596D01*
X006934Y006711D01*
X006890Y006818D01*
X006808Y006899D01*
X006701Y006944D01*
X006586Y006944D01*
X006480Y006899D01*
X006423Y006842D01*
X006412Y006880D01*
X006393Y006915D01*
X006365Y006943D01*
X006330Y006962D01*
X006292Y006973D01*
X006086Y006973D01*
X006086Y006764D01*
X006086Y006764D01*
X006086Y006973D01*
X005950Y006973D01*
X005950Y007031D01*
X005951Y007032D01*
X005951Y007435D01*
X005953Y007437D01*
X005953Y007624D01*
X005954Y007624D01*
X005954Y008078D01*
X006054Y008078D01*
X006054Y007624D01*
X006339Y007624D01*
X006377Y007634D01*
X006411Y007654D01*
X006439Y007682D01*
X006459Y007716D01*
X006469Y007754D01*
X006469Y008078D01*
X006054Y008078D01*
X006054Y008178D01*
X005954Y008178D01*
X005954Y008633D01*
X005670Y008633D01*
X005631Y008622D01*
X005606Y008608D01*
X005495Y008718D01*
X005360Y008853D01*
X004369Y008853D01*
X004356Y008840D01*
X004312Y008884D01*
X004312Y009009D01*
X004195Y009126D01*
X003509Y009812D01*
X003515Y009812D01*
X003621Y009856D01*
X003703Y009938D01*
X003743Y010034D01*
X004409Y010700D01*
X004576Y010700D01*
X004576Y010694D01*
X004576Y010615D01*
X004586Y010577D01*
X004606Y010543D01*
X004634Y010515D01*
X004668Y010495D01*
X004706Y010485D01*
X004913Y010485D01*
X004913Y010694D01*
X004913Y010694D01*
X004913Y010485D01*
X005048Y010485D01*
X005048Y010426D01*
X004849Y010227D01*
X004781Y010160D01*
X004781Y010160D01*
X004781Y010159D01*
X004781Y010064D01*
X004779Y009449D01*
X004762Y009432D01*
X004718Y009326D01*
X004718Y009210D01*
X004762Y009104D01*
X004844Y009022D01*
X004950Y008978D01*
X005066Y008978D01*
X005172Y009022D01*
X005254Y009104D01*
X005298Y009210D01*
X005298Y009326D01*
X005254Y009432D01*
X005239Y009448D01*
X005241Y009968D01*
X005246Y009973D01*
X005338Y009973D01*
X005338Y009958D01*
X005452Y009843D01*
X005452Y009843D01*
X006596Y008699D01*
X006711Y008585D01*
X007972Y008585D01*
X007972Y008302D02*
X006469Y008302D01*
X006469Y008204D02*
X007972Y008204D01*
X007972Y008105D02*
X006054Y008105D01*
X006054Y008178D02*
X006469Y008178D01*
X006469Y008502D01*
X006459Y008540D01*
X006439Y008575D01*
X006411Y008603D01*
X006377Y008622D01*
X006339Y008633D01*
X006054Y008633D01*
X006054Y008178D01*
X006054Y008204D02*
X005954Y008204D01*
X005954Y008302D02*
X006054Y008302D01*
X006054Y008401D02*
X005954Y008401D01*
X005954Y008499D02*
X006054Y008499D01*
X006054Y008598D02*
X005954Y008598D01*
X006304Y008992D02*
X005098Y008992D01*
X005240Y009090D02*
X006206Y009090D01*
X006107Y009189D02*
X005289Y009189D01*
X005298Y009287D02*
X006009Y009287D01*
X005910Y009386D02*
X005273Y009386D01*
X005239Y009484D02*
X005812Y009484D01*
X005713Y009583D02*
X005239Y009583D01*
X005240Y009681D02*
X005615Y009681D01*
X005516Y009780D02*
X005240Y009780D01*
X005240Y009878D02*
X005418Y009878D01*
X004993Y010371D02*
X004079Y010371D01*
X004178Y010469D02*
X005048Y010469D01*
X004913Y010568D02*
X004913Y010568D01*
X004913Y010666D02*
X004913Y010666D01*
X004913Y010694D02*
X004576Y010694D01*
X004913Y010694D01*
X004913Y010694D01*
X004576Y010666D02*
X004375Y010666D01*
X004276Y010568D02*
X004592Y010568D01*
X004894Y010272D02*
X003981Y010272D01*
X003882Y010174D02*
X004795Y010174D01*
X004781Y010075D02*
X003784Y010075D01*
X003719Y009977D02*
X004781Y009977D01*
X004780Y009878D02*
X003643Y009878D01*
X003541Y009780D02*
X004780Y009780D01*
X004780Y009681D02*
X003640Y009681D01*
X003738Y009583D02*
X004779Y009583D01*
X004779Y009484D02*
X003837Y009484D01*
X003935Y009386D02*
X004743Y009386D01*
X004718Y009287D02*
X004034Y009287D01*
X004132Y009189D02*
X004727Y009189D01*
X004776Y009090D02*
X004231Y009090D01*
X004312Y008992D02*
X004918Y008992D01*
X005419Y008795D02*
X006501Y008795D01*
X006403Y008893D02*
X004312Y008893D01*
X005517Y008696D02*
X006600Y008696D01*
X006698Y008598D02*
X006416Y008598D01*
X006469Y008007D02*
X007949Y008007D01*
X007850Y007908D02*
X006469Y007908D01*
X006469Y007810D02*
X007752Y007810D01*
X007653Y007711D02*
X006456Y007711D01*
X006054Y007711D02*
X005954Y007711D01*
X005953Y007613D02*
X007555Y007613D01*
X007419Y007514D02*
X005953Y007514D01*
X005951Y007416D02*
X007303Y007416D01*
X007262Y007317D02*
X005951Y007317D01*
X005951Y007219D02*
X007260Y007219D01*
X007261Y007120D02*
X005951Y007120D01*
X005950Y007022D02*
X007261Y007022D01*
X007261Y006923D02*
X006751Y006923D01*
X006883Y006825D02*
X007261Y006825D01*
X007261Y006726D02*
X006928Y006726D01*
X006934Y006628D02*
X007261Y006628D01*
X007261Y006529D02*
X006906Y006529D01*
X006831Y006431D02*
X007261Y006431D01*
X007261Y006332D02*
X006648Y006332D01*
X006443Y006234D02*
X007261Y006234D01*
X007218Y006135D02*
X006443Y006135D01*
X006423Y006037D02*
X007119Y006037D01*
X007021Y005938D02*
X006423Y005938D01*
X006423Y005996D02*
X006211Y005996D01*
X006423Y005996D01*
X006388Y005840D02*
X006922Y005840D01*
X006824Y005741D02*
X005950Y005741D01*
X005950Y005643D02*
X006238Y005643D01*
X006176Y005544D02*
X005950Y005544D01*
X005950Y005446D02*
X006156Y005446D01*
X006170Y005347D02*
X005923Y005347D01*
X006223Y005249D02*
X005066Y005249D01*
X005164Y005150D02*
X006376Y005150D01*
X006994Y005150D02*
X007741Y005150D01*
X007741Y005249D02*
X007152Y005249D01*
X007177Y005274D02*
X007177Y005274D01*
X007250Y005347D02*
X007741Y005347D01*
X007741Y005446D02*
X007349Y005446D01*
X007447Y005544D02*
X007741Y005544D01*
X007741Y005643D02*
X007546Y005643D01*
X007644Y005741D02*
X007675Y005741D01*
X008241Y005482D02*
X008260Y005471D01*
X008298Y005461D01*
X008436Y005461D01*
X008436Y005769D01*
X008474Y005769D01*
X008474Y005461D01*
X008613Y005461D01*
X008651Y005471D01*
X008685Y005491D01*
X008697Y005503D01*
X008703Y005497D01*
X008686Y005457D01*
X008686Y005339D01*
X008722Y005252D01*
X008696Y005225D01*
X008651Y005117D01*
X008651Y004999D01*
X008696Y004891D01*
X008779Y004808D01*
X008887Y004763D01*
X009004Y004763D01*
X009113Y004808D01*
X009133Y004828D01*
X009461Y004828D01*
X009461Y004777D01*
X009461Y004590D01*
X009471Y004552D01*
X009491Y004518D01*
X009491Y004517D01*
X009466Y004457D01*
X009466Y004339D01*
X009500Y004258D01*
X008355Y004258D01*
X008241Y004372D01*
X008241Y005482D01*
X008241Y005446D02*
X008686Y005446D01*
X008686Y005347D02*
X008241Y005347D01*
X008241Y005249D02*
X008719Y005249D01*
X008664Y005150D02*
X008241Y005150D01*
X008241Y005052D02*
X008651Y005052D01*
X008670Y004953D02*
X008241Y004953D01*
X008241Y004855D02*
X008732Y004855D01*
X008241Y004756D02*
X009461Y004756D01*
X009461Y004777D02*
X009542Y004777D01*
X009542Y004777D01*
X009461Y004777D01*
X009461Y004658D02*
X008241Y004658D01*
X008241Y004559D02*
X009469Y004559D01*
X009468Y004461D02*
X008241Y004461D01*
X008251Y004362D02*
X009466Y004362D01*
X009498Y004264D02*
X008349Y004264D01*
X008036Y003870D02*
X007313Y003870D01*
X007301Y003841D02*
X007346Y003949D01*
X007346Y004067D01*
X007301Y004175D01*
X007218Y004258D01*
X007110Y004303D01*
X006992Y004303D01*
X006884Y004258D01*
X006854Y004228D01*
X004532Y004228D01*
X003691Y005069D01*
X003691Y005361D01*
X003731Y005401D01*
X003733Y005404D01*
X003801Y005473D01*
X003801Y005475D01*
X004019Y005475D01*
X004030Y005464D01*
X004038Y005450D01*
X004071Y005424D01*
X004860Y004634D01*
X004942Y004552D01*
X005049Y004508D01*
X007540Y004508D01*
X007552Y004503D01*
X007670Y004503D01*
X007741Y004533D01*
X007741Y004218D01*
X007779Y004127D01*
X007850Y004056D01*
X008110Y003796D01*
X008201Y003758D01*
X008754Y003758D01*
X007677Y002681D01*
X007649Y002681D01*
X007552Y002778D01*
X007304Y003027D01*
X007346Y003129D01*
X007346Y003247D01*
X007301Y003355D01*
X007218Y003438D01*
X007110Y003483D01*
X006992Y003483D01*
X006884Y003438D01*
X006801Y003355D01*
X006756Y003247D01*
X006756Y003129D01*
X006801Y003021D01*
X006831Y002991D01*
X006831Y002877D01*
X006960Y002748D01*
X007027Y002681D01*
X006724Y002681D01*
X006624Y002582D01*
X006624Y002268D01*
X006114Y002268D01*
X006014Y002168D01*
X006014Y001712D01*
X006114Y001613D01*
X006600Y001613D01*
X006600Y001441D01*
X006114Y001441D01*
X006014Y001341D01*
X006014Y000938D01*
X005637Y000938D01*
X005637Y002140D01*
X005538Y002240D01*
X004678Y002240D01*
X004711Y002273D01*
X004711Y002358D01*
X004727Y002358D01*
X004826Y002458D01*
X004826Y002577D01*
X004854Y002646D01*
X004854Y002891D01*
X004826Y002960D01*
X004826Y003099D01*
X004727Y003198D01*
X004680Y003198D01*
X004671Y003207D01*
X004671Y003254D01*
X004572Y003353D01*
X004439Y003353D01*
X004360Y003386D01*
X004114Y003386D01*
X004036Y003353D01*
X003931Y003353D01*
X003831Y003254D01*
X003831Y003236D01*
X003714Y003118D01*
X003668Y003007D01*
X003617Y003007D01*
X003530Y003007D01*
X003510Y003027D01*
X003443Y003027D01*
X003461Y003070D01*
X003461Y003186D01*
X003417Y003292D01*
X003335Y003374D01*
X003229Y003418D01*
X003113Y003418D01*
X003007Y003374D01*
X002991Y003358D01*
X002866Y003358D01*
X002821Y003313D01*
X002782Y003353D01*
X002687Y003353D01*
X002608Y003386D01*
X002362Y003386D01*
X002284Y003353D01*
X002141Y003353D01*
X002041Y003254D01*
X002041Y003198D01*
X001996Y003198D01*
X001896Y003099D01*
X001896Y002960D01*
X001868Y002891D01*
X001868Y002646D01*
X001896Y002577D01*
X001896Y002458D01*
X001996Y002358D01*
X002011Y002358D01*
X002011Y002273D01*
X002044Y002240D01*
X001211Y002240D01*
X001211Y008000D01*
X001302Y007909D01*
X001302Y007909D01*
X001737Y007474D01*
X001796Y007415D01*
X001854Y007357D01*
X001854Y007357D01*
X001854Y007357D01*
X001937Y007357D01*
X002020Y007357D01*
X002020Y007357D01*
X003833Y007359D01*
X003916Y007359D01*
X003916Y007359D01*
X003916Y007359D01*
X003975Y007418D01*
X004090Y007533D01*
X004090Y007005D01*
X004225Y006870D01*
X004232Y006863D01*
X004232Y006634D01*
X004258Y006608D01*
X004252Y006586D01*
X004252Y006508D01*
X004589Y006508D01*
X004589Y006508D01*
X004252Y006508D01*
X004252Y006491D01*
X004051Y006491D01*
X004051Y006608D01*
X003989Y006669D01*
X004001Y006681D01*
X004021Y006715D01*
X004031Y006754D01*
X004031Y006941D01*
X003732Y006941D01*
X003732Y007038D01*
X003636Y007038D01*
X003636Y006941D01*
X003337Y006941D01*
X003337Y006754D01*
X003347Y006715D01*
X003367Y006681D01*
X003379Y006669D01*
X003317Y006608D01*
X003317Y006500D01*
X002777Y006500D01*
X002515Y006762D01*
X002475Y006858D01*
X002393Y006940D01*
X002287Y006984D01*
X002171Y006984D01*
X002065Y006940D01*
X001983Y006858D01*
X001939Y006752D01*
X001939Y006636D01*
X001983Y006530D01*
X002065Y006448D01*
X002161Y006408D01*
X002532Y006038D01*
X002624Y006000D01*
X003351Y006000D01*
X003417Y005934D01*
X003497Y005934D01*
X003497Y005863D01*
X003422Y005863D01*
X003314Y005818D01*
X003231Y005735D01*
X003186Y005627D01*
X003186Y005509D01*
X003231Y005401D01*
X003251Y005381D01*
X003251Y004887D01*
X003380Y004758D01*
X004350Y003788D01*
X006854Y003788D01*
X006884Y003758D01*
X006992Y003713D01*
X007110Y003713D01*
X007218Y003758D01*
X007301Y003841D01*
X007231Y003771D02*
X008170Y003771D01*
X007938Y003968D02*
X007346Y003968D01*
X007346Y004067D02*
X007839Y004067D01*
X007763Y004165D02*
X007305Y004165D01*
X007205Y004264D02*
X007741Y004264D01*
X007741Y004362D02*
X004398Y004362D01*
X004300Y004461D02*
X007741Y004461D01*
X007051Y004008D02*
X004441Y004008D01*
X003471Y004978D01*
X003471Y005558D01*
X003481Y005568D01*
X003213Y005446D02*
X001211Y005446D01*
X001211Y005544D02*
X003186Y005544D01*
X003193Y005643D02*
X001211Y005643D01*
X001211Y005741D02*
X003237Y005741D01*
X003366Y005840D02*
X001211Y005840D01*
X001211Y005938D02*
X003413Y005938D01*
X003727Y006250D02*
X003684Y006321D01*
X003554Y006332D01*
X003317Y006529D02*
X002748Y006529D01*
X002649Y006628D02*
X003337Y006628D01*
X003344Y006726D02*
X002551Y006726D01*
X002489Y006825D02*
X003337Y006825D01*
X003337Y006923D02*
X002410Y006923D01*
X002048Y006923D02*
X001211Y006923D01*
X001211Y006825D02*
X001969Y006825D01*
X001939Y006726D02*
X001211Y006726D01*
X001211Y006628D02*
X001943Y006628D01*
X001984Y006529D02*
X001211Y006529D01*
X001211Y006431D02*
X002107Y006431D01*
X002238Y006332D02*
X001211Y006332D01*
X001211Y006234D02*
X002336Y006234D01*
X002435Y006135D02*
X001211Y006135D01*
X001211Y006037D02*
X002535Y006037D01*
X003251Y005347D02*
X001211Y005347D01*
X001211Y005249D02*
X003251Y005249D01*
X003251Y005150D02*
X001211Y005150D01*
X001211Y005052D02*
X003251Y005052D01*
X003251Y004953D02*
X001211Y004953D01*
X001211Y004855D02*
X003284Y004855D01*
X003382Y004756D02*
X001211Y004756D01*
X001211Y004658D02*
X003481Y004658D01*
X003579Y004559D02*
X001211Y004559D01*
X001211Y004461D02*
X003678Y004461D01*
X003776Y004362D02*
X001211Y004362D01*
X001211Y004264D02*
X003875Y004264D01*
X003973Y004165D02*
X001211Y004165D01*
X001211Y004067D02*
X004072Y004067D01*
X004170Y003968D02*
X001211Y003968D01*
X001211Y003870D02*
X004269Y003870D01*
X004497Y004264D02*
X006897Y004264D01*
X006871Y003771D02*
X001211Y003771D01*
X001211Y003673D02*
X008668Y003673D01*
X008570Y003574D02*
X001211Y003574D01*
X001211Y003476D02*
X006974Y003476D01*
X007128Y003476D02*
X008471Y003476D01*
X008373Y003377D02*
X007279Y003377D01*
X007333Y003279D02*
X008274Y003279D01*
X008176Y003180D02*
X007346Y003180D01*
X007326Y003082D02*
X008077Y003082D01*
X007979Y002983D02*
X007347Y002983D01*
X007446Y002885D02*
X007880Y002885D01*
X007782Y002786D02*
X007544Y002786D01*
X007552Y002778D02*
X007552Y002778D01*
X007643Y002688D02*
X007683Y002688D01*
X007461Y002558D02*
X007461Y002216D01*
X007523Y002216D01*
X009035Y003728D01*
X010251Y003728D01*
X010054Y003508D02*
X010084Y003478D01*
X010192Y003433D01*
X010310Y003433D01*
X010418Y003478D01*
X010501Y003561D01*
X010543Y003662D01*
X010640Y003566D01*
X010731Y003528D01*
X011961Y003528D01*
X012053Y003566D01*
X012123Y003637D01*
X012293Y003807D01*
X012331Y003898D01*
X012331Y007104D01*
X012331Y000938D01*
X009622Y000938D01*
X009622Y001341D01*
X009522Y001441D01*
X009036Y001441D01*
X009036Y001613D01*
X009522Y001613D01*
X009622Y001712D01*
X009622Y002168D01*
X009522Y002268D01*
X008992Y002268D01*
X008992Y002531D01*
X008981Y002569D01*
X008962Y002603D01*
X008934Y002631D01*
X008900Y002651D01*
X008861Y002661D01*
X008723Y002661D01*
X008723Y002235D01*
X008685Y002235D01*
X008685Y002661D01*
X008546Y002661D01*
X008508Y002651D01*
X008474Y002631D01*
X008446Y002603D01*
X008426Y002569D01*
X008416Y002531D01*
X008416Y002235D01*
X008685Y002235D01*
X008685Y002197D01*
X008416Y002197D01*
X008416Y002154D01*
X008284Y002154D01*
X008053Y002059D01*
X007877Y001882D01*
X007818Y001740D01*
X007789Y001809D01*
X007831Y001850D01*
X007831Y002213D01*
X009126Y003508D01*
X010054Y003508D01*
X010090Y003476D02*
X009094Y003476D01*
X008995Y003377D02*
X012331Y003377D01*
X012331Y003279D02*
X008897Y003279D01*
X008798Y003180D02*
X012331Y003180D01*
X012331Y003082D02*
X008700Y003082D01*
X008601Y002983D02*
X012331Y002983D01*
X012331Y002885D02*
X008503Y002885D01*
X008404Y002786D02*
X012331Y002786D01*
X012331Y002688D02*
X008306Y002688D01*
X008207Y002589D02*
X008438Y002589D01*
X008416Y002491D02*
X008109Y002491D01*
X008010Y002392D02*
X008416Y002392D01*
X008416Y002294D02*
X007912Y002294D01*
X007831Y002195D02*
X008416Y002195D01*
X008685Y002294D02*
X008723Y002294D01*
X008723Y002392D02*
X008685Y002392D01*
X008685Y002491D02*
X008723Y002491D01*
X008723Y002589D02*
X008685Y002589D01*
X008970Y002589D02*
X012331Y002589D01*
X012331Y002491D02*
X008992Y002491D01*
X008992Y002392D02*
X012331Y002392D01*
X012331Y002294D02*
X008992Y002294D01*
X009595Y002195D02*
X012331Y002195D01*
X012331Y002097D02*
X009622Y002097D01*
X009622Y001998D02*
X012331Y001998D01*
X012331Y001900D02*
X009622Y001900D01*
X009622Y001801D02*
X012331Y001801D01*
X012331Y001703D02*
X009612Y001703D01*
X009556Y001407D02*
X012331Y001407D01*
X012331Y001309D02*
X009622Y001309D01*
X009622Y001210D02*
X012331Y001210D01*
X012331Y001112D02*
X009622Y001112D01*
X009622Y001013D02*
X012331Y001013D01*
X012331Y001506D02*
X009036Y001506D01*
X009036Y001604D02*
X012331Y001604D01*
X012331Y003476D02*
X010412Y003476D01*
X010507Y003574D02*
X010632Y003574D01*
X010885Y004308D02*
X010531Y004662D01*
X010531Y004728D01*
X010306Y004728D01*
X010256Y004777D01*
X010060Y004777D02*
X010060Y005117D01*
X010101Y005158D01*
X009771Y005158D01*
X009661Y005048D01*
X009661Y004782D01*
X009666Y004777D01*
X010542Y005063D02*
X010786Y005063D01*
X011051Y004798D01*
X011366Y004953D02*
X011385Y004953D01*
X011665Y004559D02*
X011831Y004559D01*
X011831Y004461D02*
X011685Y004461D01*
X011685Y004362D02*
X011831Y004362D01*
X011831Y004264D02*
X011685Y004264D01*
X011685Y004165D02*
X011831Y004165D01*
X011831Y004067D02*
X011671Y004067D01*
X012159Y003673D02*
X012331Y003673D01*
X012331Y003771D02*
X012258Y003771D01*
X012319Y003870D02*
X012331Y003870D01*
X012331Y003968D02*
X012331Y003968D01*
X012331Y004067D02*
X012331Y004067D01*
X012331Y004165D02*
X012331Y004165D01*
X012331Y004264D02*
X012331Y004264D01*
X012331Y004362D02*
X012331Y004362D01*
X012331Y004461D02*
X012331Y004461D01*
X012331Y004559D02*
X012331Y004559D01*
X012331Y004658D02*
X012331Y004658D01*
X012331Y004756D02*
X012331Y004756D01*
X012331Y004855D02*
X012331Y004855D01*
X012331Y004953D02*
X012331Y004953D01*
X012331Y005052D02*
X012331Y005052D01*
X012331Y005150D02*
X012331Y005150D01*
X012331Y005249D02*
X012331Y005249D01*
X012331Y005347D02*
X012331Y005347D01*
X012331Y005446D02*
X012331Y005446D01*
X012331Y005544D02*
X012331Y005544D01*
X012331Y005643D02*
X012331Y005643D01*
X012331Y005741D02*
X012331Y005741D01*
X012331Y005840D02*
X012331Y005840D01*
X012331Y005938D02*
X012331Y005938D01*
X012331Y006037D02*
X012331Y006037D01*
X012331Y006135D02*
X012331Y006135D01*
X012331Y006234D02*
X012331Y006234D01*
X012331Y006332D02*
X012331Y006332D01*
X012331Y006431D02*
X012331Y006431D01*
X012331Y006529D02*
X012331Y006529D01*
X012331Y006628D02*
X012331Y006628D01*
X012331Y006726D02*
X012331Y006726D01*
X012331Y006825D02*
X012331Y006825D01*
X012331Y006923D02*
X012331Y006923D01*
X012331Y007022D02*
X012331Y007022D01*
X012331Y007104D02*
X012331Y007104D01*
X012330Y007416D02*
X012331Y007416D01*
X012331Y007514D02*
X012221Y007514D01*
X012331Y007810D02*
X009917Y007810D01*
X009971Y007908D02*
X012331Y007908D01*
X012331Y008007D02*
X009984Y008007D01*
X009963Y008105D02*
X012331Y008105D01*
X012331Y008204D02*
X009898Y008204D01*
X009821Y008302D02*
X012331Y008302D01*
X012331Y008401D02*
X009821Y008401D01*
X009821Y008499D02*
X012331Y008499D01*
X012331Y008598D02*
X009821Y008598D01*
X009821Y008696D02*
X012331Y008696D01*
X012331Y008795D02*
X009821Y008795D01*
X009821Y008893D02*
X012331Y008893D01*
X012331Y008992D02*
X009821Y008992D01*
X009821Y009090D02*
X012331Y009090D01*
X012331Y009189D02*
X009821Y009189D01*
X009821Y009287D02*
X012331Y009287D01*
X012331Y009386D02*
X009821Y009386D01*
X009821Y009484D02*
X012331Y009484D01*
X012331Y009583D02*
X009821Y009583D01*
X009819Y009590D02*
X009819Y010280D01*
X009821Y010272D02*
X010102Y010272D01*
X010102Y010371D02*
X009821Y010371D01*
X009821Y010469D02*
X010138Y010469D01*
X010141Y010174D02*
X009821Y010174D01*
X009821Y010075D02*
X010235Y010075D01*
X010549Y010075D02*
X012331Y010075D01*
X012331Y009977D02*
X009821Y009977D01*
X009821Y009878D02*
X012331Y009878D01*
X012331Y009780D02*
X009821Y009780D01*
X009821Y009681D02*
X012331Y009681D01*
X012331Y010174D02*
X010644Y010174D01*
X010694Y010272D02*
X012331Y010272D01*
X012331Y010371D02*
X010792Y010371D01*
X010891Y010469D02*
X012331Y010469D01*
X012331Y010568D02*
X010989Y010568D01*
X011088Y010666D02*
X012331Y010666D01*
X012331Y010765D02*
X011186Y010765D01*
X011285Y010863D02*
X012331Y010863D01*
X012331Y010962D02*
X011383Y010962D01*
X011482Y011060D02*
X012331Y011060D01*
X012331Y011159D02*
X011580Y011159D01*
X011679Y011257D02*
X012331Y011257D01*
X012331Y011356D02*
X011777Y011356D01*
X011876Y011454D02*
X012331Y011454D01*
X012331Y011553D02*
X011968Y011553D01*
X012001Y011651D02*
X012331Y011651D01*
X012331Y011750D02*
X012001Y011750D01*
X012032Y011848D02*
X012331Y011848D01*
X012331Y011947D02*
X012123Y011947D01*
X012222Y012045D02*
X012331Y012045D01*
X012331Y012144D02*
X012270Y012144D01*
X012273Y012242D02*
X012331Y012242D01*
X012331Y012341D02*
X012273Y012341D01*
X012273Y012439D02*
X012331Y012439D01*
X012331Y012538D02*
X012273Y012538D01*
X012273Y012636D02*
X012331Y012636D01*
X012331Y012735D02*
X012273Y012735D01*
X012273Y012833D02*
X012331Y012833D01*
X012331Y012932D02*
X012273Y012932D01*
X012273Y013030D02*
X012331Y013030D01*
X012331Y013129D02*
X012273Y013129D01*
X012273Y013227D02*
X012331Y013227D01*
X012331Y013326D02*
X012273Y013326D01*
X012273Y013424D02*
X012331Y013424D01*
X012331Y013523D02*
X012273Y013523D01*
X012273Y013621D02*
X012331Y013621D01*
X012331Y013720D02*
X012273Y013720D01*
X012273Y013818D02*
X012331Y013818D01*
X012331Y014015D02*
X012228Y014015D01*
X012130Y014114D02*
X012331Y014114D01*
X012331Y014212D02*
X012031Y014212D01*
X010802Y012527D02*
X010724Y012559D01*
X010643Y012641D01*
X010633Y012664D01*
X009662Y012664D01*
X009683Y012643D01*
X009745Y012643D01*
X009851Y012599D01*
X009933Y012517D01*
X009977Y012411D01*
X009977Y012295D01*
X009953Y012238D01*
X010513Y012238D01*
X010802Y012527D01*
X010776Y012538D02*
X009913Y012538D01*
X009965Y012439D02*
X010714Y012439D01*
X010616Y012341D02*
X009977Y012341D01*
X009955Y012242D02*
X010517Y012242D01*
X010647Y012636D02*
X009762Y012636D01*
X010081Y013418D02*
X009711Y013788D01*
X008667Y012664D02*
X008475Y012664D01*
X008358Y012781D01*
X008305Y012834D01*
X008180Y012834D01*
X008045Y012890D01*
X008007Y012928D01*
X007970Y012890D01*
X007834Y012834D01*
X007688Y012834D01*
X007552Y012890D01*
X007515Y012928D01*
X007478Y012890D01*
X007342Y012834D01*
X007196Y012834D01*
X007060Y012890D01*
X007009Y012942D01*
X006999Y012932D01*
X006942Y012894D01*
X006879Y012868D01*
X006811Y012854D01*
X006777Y012854D01*
X006777Y013401D01*
X006777Y013401D01*
X006777Y013948D01*
X006811Y013948D01*
X006879Y013934D01*
X006942Y013908D01*
X006999Y013870D01*
X007009Y013860D01*
X007036Y013888D01*
X007057Y013938D01*
X007388Y014268D01*
X003460Y014268D01*
X003495Y014184D01*
X003495Y014139D01*
X003523Y014167D01*
X003524Y014167D01*
X003524Y014168D01*
X003570Y014186D01*
X003615Y014205D01*
X003616Y014205D01*
X003616Y014205D01*
X003665Y014205D01*
X005702Y014206D01*
X005702Y014206D01*
X005752Y014206D01*
X005801Y014206D01*
X005801Y014206D01*
X005802Y014206D01*
X005847Y014187D01*
X005893Y014168D01*
X005893Y014168D01*
X005894Y014168D01*
X005928Y014133D01*
X005963Y014098D01*
X005963Y014097D01*
X006306Y013751D01*
X006401Y013712D01*
X006437Y013676D01*
X006442Y013701D01*
X006468Y013764D01*
X006506Y013822D01*
X006555Y013870D01*
X006612Y013908D01*
X006675Y013934D01*
X006743Y013948D01*
X006777Y013948D01*
X006777Y013401D01*
X006777Y013401D01*
X006777Y012854D01*
X006749Y012854D01*
X006988Y012615D01*
X007628Y012615D01*
X007711Y012615D01*
X007711Y012615D01*
X007769Y012557D01*
X007921Y012405D01*
X007936Y012442D01*
X008018Y012524D01*
X008124Y012568D01*
X008240Y012568D01*
X008346Y012524D01*
X008392Y012478D01*
X008514Y012478D01*
X008596Y012478D01*
X008596Y012478D01*
X008596Y012478D01*
X008601Y012473D01*
X008601Y012598D01*
X008667Y012664D01*
X008639Y012636D02*
X006967Y012636D01*
X006868Y012735D02*
X008404Y012735D01*
X008306Y012833D02*
X006770Y012833D01*
X006777Y012932D02*
X006777Y012932D01*
X006777Y013030D02*
X006777Y013030D01*
X006777Y013129D02*
X006777Y013129D01*
X006777Y013227D02*
X006777Y013227D01*
X006777Y013326D02*
X006777Y013326D01*
X006777Y013424D02*
X006777Y013424D01*
X006777Y013523D02*
X006777Y013523D01*
X006777Y013621D02*
X006777Y013621D01*
X006777Y013720D02*
X006777Y013720D01*
X006777Y013818D02*
X006777Y013818D01*
X006777Y013917D02*
X006777Y013917D01*
X006921Y013917D02*
X007048Y013917D01*
X007135Y014015D02*
X006045Y014015D01*
X006142Y013917D02*
X006632Y013917D01*
X006504Y013818D02*
X006240Y013818D01*
X006383Y013720D02*
X006450Y013720D01*
X005951Y013400D02*
X005963Y013369D01*
X005830Y013369D01*
X005706Y013245D01*
X005589Y013128D01*
X005589Y012183D01*
X005507Y012183D01*
X005507Y013280D01*
X005456Y013331D01*
X005456Y013354D01*
X005412Y013460D01*
X005330Y013542D01*
X005224Y013586D01*
X005108Y013586D01*
X005002Y013542D01*
X004920Y013460D01*
X004876Y013354D01*
X004876Y013238D01*
X004920Y013132D01*
X005002Y013050D01*
X005047Y013031D01*
X005047Y011731D01*
X005048Y011730D01*
X005048Y011671D01*
X004913Y011671D01*
X004706Y011671D01*
X004668Y011661D01*
X004634Y011641D01*
X004606Y011613D01*
X004586Y011579D01*
X004582Y011563D01*
X004493Y011652D01*
X004493Y013057D01*
X004519Y013083D01*
X004563Y013189D01*
X004563Y013305D01*
X004519Y013411D01*
X004437Y013493D01*
X004331Y013537D01*
X004215Y013537D01*
X004109Y013493D01*
X004027Y013411D01*
X003983Y013305D01*
X003983Y013189D01*
X004027Y013083D01*
X004033Y013077D01*
X004033Y011557D01*
X004033Y011462D01*
X004033Y011462D01*
X004033Y011462D01*
X004100Y011395D01*
X004294Y011200D01*
X004255Y011200D01*
X004164Y011162D01*
X003389Y010388D01*
X003374Y010382D01*
X003374Y010839D01*
X003794Y011260D01*
X003853Y011318D01*
X003853Y011318D01*
X003853Y011318D01*
X003853Y011401D01*
X003855Y013231D01*
X003901Y013277D01*
X003945Y013383D01*
X003945Y013499D01*
X003901Y013605D01*
X003819Y013687D01*
X003775Y013705D01*
X005647Y013706D01*
X005951Y013400D01*
X005927Y013424D02*
X005427Y013424D01*
X005462Y013326D02*
X005787Y013326D01*
X005688Y013227D02*
X005507Y013227D01*
X005507Y013129D02*
X005590Y013129D01*
X005589Y013030D02*
X005507Y013030D01*
X005507Y012932D02*
X005589Y012932D01*
X005589Y012833D02*
X005507Y012833D01*
X005507Y012735D02*
X005589Y012735D01*
X005589Y012636D02*
X005507Y012636D01*
X005507Y012538D02*
X005589Y012538D01*
X005589Y012439D02*
X005507Y012439D01*
X005507Y012341D02*
X005589Y012341D01*
X005589Y012242D02*
X005507Y012242D01*
X005047Y012242D02*
X004493Y012242D01*
X004493Y012144D02*
X005047Y012144D01*
X005047Y012045D02*
X004493Y012045D01*
X004493Y011947D02*
X005047Y011947D01*
X005047Y011848D02*
X004493Y011848D01*
X004493Y011750D02*
X005047Y011750D01*
X004913Y011671D02*
X004913Y011462D01*
X004913Y011671D01*
X004913Y011651D02*
X004913Y011651D01*
X004913Y011553D02*
X004913Y011553D01*
X004913Y011462D02*
X004913Y011462D01*
X004651Y011651D02*
X004494Y011651D01*
X004033Y011651D02*
X003853Y011651D01*
X003853Y011553D02*
X004033Y011553D01*
X004041Y011454D02*
X003853Y011454D01*
X003853Y011356D02*
X004139Y011356D01*
X004237Y011257D02*
X003792Y011257D01*
X003693Y011159D02*
X004160Y011159D01*
X004062Y011060D02*
X003595Y011060D01*
X003496Y010962D02*
X003963Y010962D01*
X003865Y010863D02*
X003398Y010863D01*
X003374Y010765D02*
X003766Y010765D01*
X003668Y010666D02*
X003374Y010666D01*
X003374Y010568D02*
X003569Y010568D01*
X003471Y010469D02*
X003374Y010469D01*
X003853Y011750D02*
X004033Y011750D01*
X004033Y011848D02*
X003854Y011848D01*
X003854Y011947D02*
X004033Y011947D01*
X004033Y012045D02*
X003854Y012045D01*
X003854Y012144D02*
X004033Y012144D01*
X004033Y012242D02*
X003854Y012242D01*
X003854Y012341D02*
X004033Y012341D01*
X004033Y012439D02*
X003854Y012439D01*
X003854Y012538D02*
X004033Y012538D01*
X004033Y012636D02*
X003854Y012636D01*
X003854Y012735D02*
X004033Y012735D01*
X004033Y012833D02*
X003855Y012833D01*
X003855Y012932D02*
X004033Y012932D01*
X004033Y013030D02*
X003855Y013030D01*
X003855Y013129D02*
X004008Y013129D01*
X003983Y013227D02*
X003855Y013227D01*
X003921Y013326D02*
X003992Y013326D01*
X003945Y013424D02*
X004040Y013424D01*
X003935Y013523D02*
X004180Y013523D01*
X004366Y013523D02*
X004983Y013523D01*
X004905Y013424D02*
X004506Y013424D01*
X004555Y013326D02*
X004876Y013326D01*
X004881Y013227D02*
X004563Y013227D01*
X004538Y013129D02*
X004924Y013129D01*
X005047Y013030D02*
X004493Y013030D01*
X004493Y012932D02*
X005047Y012932D01*
X005047Y012833D02*
X004493Y012833D01*
X004493Y012735D02*
X005047Y012735D01*
X005047Y012636D02*
X004493Y012636D01*
X004493Y012538D02*
X005047Y012538D01*
X005047Y012439D02*
X004493Y012439D01*
X004493Y012341D02*
X005047Y012341D01*
X005350Y013523D02*
X005829Y013523D01*
X005731Y013621D02*
X003885Y013621D01*
X003483Y014212D02*
X007332Y014212D01*
X007233Y014114D02*
X005947Y014114D01*
X006999Y012932D02*
X007019Y012932D01*
X007711Y012615D02*
X007711Y012615D01*
X007789Y012538D02*
X008052Y012538D01*
X007935Y012439D02*
X007887Y012439D01*
X008312Y012538D02*
X008601Y012538D01*
X008001Y011599D02*
X007578Y012033D01*
X007334Y012033D01*
X007286Y012045D02*
X007228Y012045D01*
X007226Y012049D02*
X007213Y012081D01*
X007286Y012081D01*
X007286Y011984D01*
X007245Y011984D01*
X007246Y012002D01*
X007245Y012003D01*
X007245Y012004D01*
X007226Y012049D01*
X007334Y011364D02*
X007334Y011234D01*
X007162Y011234D01*
X007040Y011004D02*
X007067Y010977D01*
X007571Y010977D01*
X007477Y010882D01*
X007477Y010727D01*
X006766Y010727D01*
X006766Y010824D01*
X006740Y010850D01*
X006746Y010871D01*
X006746Y010950D01*
X006409Y010950D01*
X006409Y010950D01*
X006746Y010950D01*
X006746Y010986D01*
X006952Y010986D01*
X006959Y010993D01*
X007024Y010993D01*
X007035Y011004D01*
X007040Y011004D01*
X006861Y011206D02*
X006791Y011206D01*
X006409Y011206D01*
X006746Y010962D02*
X007556Y010962D01*
X007607Y010982D02*
X007701Y011077D01*
X007701Y011134D01*
X007951Y011134D01*
X007951Y011549D01*
X008051Y011549D01*
X008051Y011134D01*
X008321Y011134D01*
X008321Y010982D01*
X007607Y010982D01*
X007685Y011060D02*
X008321Y011060D01*
X008051Y011159D02*
X007951Y011159D01*
X007951Y011257D02*
X008051Y011257D01*
X008051Y011356D02*
X007951Y011356D01*
X007951Y011454D02*
X008051Y011454D01*
X007477Y010863D02*
X006744Y010863D01*
X006766Y010765D02*
X007477Y010765D01*
X009819Y009590D02*
X010131Y009278D01*
X008474Y005741D02*
X008436Y005741D01*
X008436Y005643D02*
X008474Y005643D01*
X008474Y005544D02*
X008436Y005544D01*
X006537Y006923D02*
X006384Y006923D01*
X006086Y006923D02*
X006086Y006923D01*
X006086Y006825D02*
X006086Y006825D01*
X006086Y006764D02*
X005737Y006764D01*
X005444Y006470D01*
X005086Y006470D01*
X005058Y006498D01*
X004599Y006498D01*
X004589Y006508D01*
X004252Y006529D02*
X004051Y006529D01*
X004031Y006628D02*
X004239Y006628D01*
X004232Y006726D02*
X004023Y006726D01*
X004031Y006825D02*
X004232Y006825D01*
X004172Y006923D02*
X004031Y006923D01*
X004090Y007022D02*
X003732Y007022D01*
X003732Y007038D02*
X004031Y007038D01*
X004031Y007226D01*
X004021Y007264D01*
X004001Y007299D01*
X003973Y007326D01*
X003939Y007346D01*
X003901Y007356D01*
X003732Y007356D01*
X003732Y007038D01*
X003684Y006990D02*
X003542Y006990D01*
X003636Y007022D02*
X001211Y007022D01*
X001211Y007120D02*
X003337Y007120D01*
X003337Y007038D02*
X003337Y007226D01*
X003347Y007264D01*
X003367Y007299D01*
X003395Y007326D01*
X003429Y007346D01*
X003467Y007356D01*
X003636Y007356D01*
X003636Y007038D01*
X003337Y007038D01*
X003337Y007219D02*
X001211Y007219D01*
X001211Y007317D02*
X003386Y007317D01*
X003636Y007317D02*
X003732Y007317D01*
X003732Y007219D02*
X003636Y007219D01*
X003636Y007120D02*
X003732Y007120D01*
X004031Y007120D02*
X004090Y007120D01*
X004090Y007219D02*
X004031Y007219D01*
X003982Y007317D02*
X004090Y007317D01*
X004090Y007416D02*
X003972Y007416D01*
X004071Y007514D02*
X004090Y007514D01*
X005451Y006328D02*
X005781Y005998D01*
X005991Y005998D01*
X006211Y005996D02*
X006211Y005996D01*
X006086Y006508D02*
X006088Y006510D01*
X006054Y007810D02*
X005954Y007810D01*
X005954Y007908D02*
X006054Y007908D01*
X006054Y008007D02*
X005954Y008007D01*
X004589Y005996D02*
X004186Y005996D01*
X004149Y006029D01*
X004043Y005446D02*
X003774Y005446D01*
X003691Y005347D02*
X004147Y005347D01*
X004246Y005249D02*
X003691Y005249D01*
X003691Y005150D02*
X004344Y005150D01*
X004443Y005052D02*
X003709Y005052D01*
X003807Y004953D02*
X004541Y004953D01*
X004640Y004855D02*
X003906Y004855D01*
X004004Y004756D02*
X004738Y004756D01*
X004837Y004658D02*
X004103Y004658D01*
X004201Y004559D02*
X004935Y004559D01*
X004381Y003377D02*
X006823Y003377D01*
X006769Y003279D02*
X004646Y003279D01*
X004745Y003180D02*
X006756Y003180D01*
X006776Y003082D02*
X004826Y003082D01*
X004826Y002983D02*
X006831Y002983D01*
X006831Y002885D02*
X004854Y002885D01*
X004854Y002786D02*
X006922Y002786D01*
X007021Y002688D02*
X004854Y002688D01*
X004831Y002589D02*
X006632Y002589D01*
X006624Y002491D02*
X004826Y002491D01*
X004761Y002392D02*
X006624Y002392D01*
X006624Y002294D02*
X004711Y002294D01*
X004226Y002151D02*
X004215Y002140D01*
X004215Y000938D01*
X002508Y000938D01*
X002508Y002140D01*
X002496Y002151D01*
X002608Y002151D01*
X002661Y002173D01*
X002683Y002173D01*
X002700Y002156D01*
X002956Y002156D01*
X003510Y002156D01*
X003530Y002176D01*
X003617Y002176D01*
X003716Y002176D01*
X003745Y002183D01*
X003774Y002176D01*
X003873Y002176D01*
X003968Y002176D01*
X003971Y002173D01*
X004061Y002173D01*
X004114Y002151D01*
X004226Y002151D01*
X004215Y002097D02*
X002508Y002097D01*
X002508Y001998D02*
X002636Y001998D01*
X002620Y001983D02*
X002720Y002082D01*
X004002Y002082D01*
X004102Y001983D01*
X004102Y001094D01*
X004002Y000994D01*
X002720Y000994D01*
X002620Y001094D01*
X002620Y001983D01*
X002620Y001900D02*
X002508Y001900D01*
X002508Y001801D02*
X002620Y001801D01*
X002620Y001703D02*
X002508Y001703D01*
X002508Y001604D02*
X002620Y001604D01*
X002620Y001506D02*
X002508Y001506D01*
X002508Y001407D02*
X002620Y001407D01*
X002620Y001309D02*
X002508Y001309D01*
X002508Y001210D02*
X002620Y001210D01*
X002620Y001112D02*
X002508Y001112D01*
X002508Y001013D02*
X002701Y001013D01*
X004021Y001013D02*
X004215Y001013D01*
X004215Y001112D02*
X004102Y001112D01*
X004102Y001210D02*
X004215Y001210D01*
X004215Y001309D02*
X004102Y001309D01*
X004102Y001407D02*
X004215Y001407D01*
X004215Y001506D02*
X004102Y001506D01*
X004102Y001604D02*
X004215Y001604D01*
X004215Y001703D02*
X004102Y001703D01*
X004102Y001801D02*
X004215Y001801D01*
X004215Y001900D02*
X004102Y001900D01*
X004086Y001998D02*
X004215Y001998D01*
X003873Y002176D02*
X003873Y002260D01*
X003873Y002260D01*
X003873Y002176D01*
X003873Y002195D02*
X003873Y002195D01*
X003750Y002458D02*
X003617Y002591D01*
X003617Y002591D01*
X003617Y002176D01*
X003617Y002591D01*
X003617Y003007D01*
X003617Y002591D01*
X003617Y002591D01*
X003617Y002589D02*
X003617Y002589D01*
X003617Y002491D02*
X003617Y002491D01*
X003617Y002392D02*
X003617Y002392D01*
X003617Y002294D02*
X003617Y002294D01*
X003617Y002195D02*
X003617Y002195D01*
X003617Y002688D02*
X003617Y002688D01*
X003617Y002786D02*
X003617Y002786D01*
X003617Y002885D02*
X003617Y002885D01*
X003617Y002983D02*
X003617Y002983D01*
X003699Y003082D02*
X003461Y003082D01*
X003461Y003180D02*
X003776Y003180D01*
X003856Y003279D02*
X003423Y003279D01*
X003328Y003377D02*
X004093Y003377D01*
X003014Y003377D02*
X002629Y003377D01*
X002341Y003377D02*
X001211Y003377D01*
X001211Y003279D02*
X002066Y003279D01*
X001978Y003180D02*
X001211Y003180D01*
X001211Y003082D02*
X001896Y003082D01*
X001896Y002983D02*
X001211Y002983D01*
X001211Y002885D02*
X001868Y002885D01*
X001868Y002786D02*
X001211Y002786D01*
X001211Y002688D02*
X001868Y002688D01*
X001891Y002589D02*
X001211Y002589D01*
X001211Y002491D02*
X001896Y002491D01*
X001962Y002392D02*
X001211Y002392D01*
X001211Y002294D02*
X002011Y002294D01*
X005582Y002195D02*
X006041Y002195D01*
X006014Y002097D02*
X005637Y002097D01*
X005637Y001998D02*
X006014Y001998D01*
X006014Y001900D02*
X005637Y001900D01*
X005637Y001801D02*
X006014Y001801D01*
X006024Y001703D02*
X005637Y001703D01*
X005637Y001604D02*
X006600Y001604D01*
X006600Y001506D02*
X005637Y001506D01*
X005637Y001407D02*
X006080Y001407D01*
X006014Y001309D02*
X005637Y001309D01*
X005637Y001210D02*
X006014Y001210D01*
X006014Y001112D02*
X005637Y001112D01*
X005637Y001013D02*
X006014Y001013D01*
X007461Y002558D02*
X007051Y002968D01*
X007051Y003188D01*
X007831Y002097D02*
X008145Y002097D01*
X007993Y001998D02*
X007831Y001998D01*
X007831Y001900D02*
X007894Y001900D01*
X007843Y001801D02*
X007793Y001801D01*
X012061Y003574D02*
X012331Y003574D01*
X002941Y012008D02*
X002791Y012158D01*
X002291Y012158D01*
X002271Y012648D02*
X002841Y012648D01*
X002961Y012528D01*
X003148Y012761D02*
X003115Y012794D01*
X003009Y012838D01*
X002962Y012838D01*
X002932Y012868D01*
X002772Y012868D01*
X002742Y012898D01*
X002752Y012908D01*
X002790Y012965D01*
X002816Y013029D01*
X002829Y013096D01*
X002829Y013130D01*
X002521Y013130D01*
X002521Y013130D01*
X002829Y013130D01*
X002829Y013165D01*
X002816Y013232D01*
X002790Y013295D01*
X002752Y013352D01*
X002742Y013362D01*
X002753Y013373D01*
X002813Y013348D01*
X002929Y013348D01*
X003035Y013392D01*
X003117Y013474D01*
X003146Y013545D01*
X003148Y012761D01*
X003148Y012833D02*
X003021Y012833D01*
X003148Y012932D02*
X002767Y012932D01*
X002816Y013030D02*
X003147Y013030D01*
X003147Y013129D02*
X002829Y013129D01*
X002817Y013227D02*
X003147Y013227D01*
X003147Y013326D02*
X002770Y013326D01*
X003067Y013424D02*
X003147Y013424D01*
X003137Y013523D02*
X003146Y013523D01*
X002301Y013138D02*
X001881Y013138D01*
X001591Y013428D01*
X001303Y007908D02*
X001211Y007908D01*
X001211Y007810D02*
X001402Y007810D01*
X001500Y007711D02*
X001211Y007711D01*
X001211Y007613D02*
X001599Y007613D01*
X001697Y007514D02*
X001211Y007514D01*
X001211Y007416D02*
X001796Y007416D01*
X001737Y007474D02*
X001737Y007474D01*
X001488Y006447D02*
X001496Y006439D01*
D38*
X001937Y007557D02*
X003833Y007559D01*
X004371Y008097D01*
X004112Y008674D02*
X004009Y008673D01*
X004112Y008674D02*
X004112Y008926D01*
X003174Y009864D01*
X003174Y010922D01*
X003653Y011401D01*
X003655Y013441D01*
X002881Y013638D02*
X002871Y013638D01*
X002301Y013638D01*
X001628Y014125D02*
X001385Y013882D01*
X001385Y008109D01*
X001937Y007557D01*
X004701Y007191D02*
X004890Y007191D01*
X004954Y007128D01*
X005210Y007128D02*
X005215Y007133D01*
X005215Y007408D01*
X005085Y007538D01*
X005037Y007538D01*
X006420Y009449D02*
X007575Y009449D01*
X007141Y009888D02*
X008371Y009888D01*
X008651Y009608D01*
X009331Y009608D01*
X009451Y009728D01*
X009451Y010008D01*
X009261Y010198D01*
X009261Y011908D01*
X009391Y012038D01*
X010596Y012038D01*
X011101Y012543D01*
X011101Y013395D01*
X011095Y013401D01*
X011587Y013401D02*
X011591Y012688D01*
X010711Y011808D01*
X009501Y011808D01*
X009521Y011458D02*
X009521Y011320D01*
X010004Y010837D01*
X009621Y010858D02*
X009621Y008070D01*
X009694Y007997D01*
X009624Y008067D01*
X009139Y009089D02*
X008908Y009089D01*
X008907Y009098D01*
X009139Y009089D02*
X009405Y009355D01*
X009191Y009888D02*
X009081Y009888D01*
X008521Y010448D01*
X008521Y011963D01*
X008439Y012046D01*
X007998Y012046D01*
X007628Y012415D01*
X006905Y012415D01*
X006468Y012852D01*
X006468Y013049D01*
X006348Y013169D01*
X005913Y013169D01*
X005789Y013045D01*
X005789Y011826D01*
X005789Y011826D01*
X005786Y011829D01*
X006045Y011826D02*
X006731Y011826D01*
X006729Y011823D01*
X006889Y011454D02*
X006417Y011454D01*
X006409Y011462D01*
X006409Y010950D02*
X005829Y010950D01*
X005573Y010694D01*
X004913Y010694D01*
X005277Y010330D02*
X005271Y010324D01*
X005487Y010694D02*
X005786Y010993D01*
X005561Y011218D01*
X005321Y011458D01*
X004917Y011458D02*
X004913Y011462D01*
X005786Y010993D02*
X005829Y010950D01*
X005789Y010330D02*
X005791Y010328D01*
X005791Y010078D01*
X006420Y009449D01*
X006576Y010527D02*
X008011Y010527D01*
X008001Y010497D01*
X008908Y010889D02*
X008908Y011885D01*
X008908Y012349D01*
X008909Y012350D01*
X008910Y012328D01*
X008514Y012278D02*
X008908Y011885D01*
X008514Y012278D02*
X008182Y012278D01*
X008558Y012864D02*
X010830Y012864D01*
X010889Y012805D01*
X011291Y012388D02*
X011321Y012358D01*
X011431Y012248D01*
X009994Y011584D02*
X009991Y011362D01*
X010004Y011349D01*
X009544Y010945D02*
X009544Y010931D01*
X009621Y010858D01*
X009687Y012353D02*
X009477Y012354D01*
X009421Y012350D01*
X008558Y012864D02*
X008241Y013181D01*
X008241Y013413D01*
X007082Y012214D02*
X007267Y012029D01*
X007334Y012033D01*
X006409Y010694D02*
X006576Y010527D01*
X003199Y014120D02*
X003205Y014126D01*
X003204Y014125D01*
X001628Y014125D01*
D39*
X003396Y013688D02*
X003665Y013955D01*
X005751Y013956D01*
X006240Y013463D01*
X006237Y013466D01*
X006237Y012935D02*
X006239Y012710D01*
X006995Y011954D01*
X006993Y011705D01*
X007334Y011364D01*
X007583Y010950D02*
X008051Y011418D01*
X008001Y011599D01*
X007583Y010950D02*
X006409Y010950D01*
X005561Y011175D02*
X005561Y011218D01*
X005561Y011175D02*
X005477Y011240D01*
X004913Y010950D02*
X004305Y010950D01*
X003457Y010102D01*
X003400Y011699D02*
X001780Y010079D01*
X001780Y008362D01*
X002229Y006694D02*
X002674Y006250D01*
X003727Y006250D01*
X003755Y006250D01*
X007551Y006138D02*
X007631Y006138D01*
X007991Y005778D01*
X007991Y004268D01*
X008251Y004008D01*
X010011Y004008D01*
X010101Y004098D01*
X010461Y004098D01*
X010781Y003778D01*
X011911Y003778D01*
X012081Y003948D01*
X012081Y007258D01*
X010488Y010021D02*
X010078Y010021D01*
X009819Y010280D01*
X010392Y010324D02*
X011751Y011683D01*
X011751Y011928D01*
X012023Y012200D01*
X012023Y013867D01*
X011782Y014108D01*
X007581Y014108D01*
X007269Y013796D01*
X007269Y013401D01*
X006781Y013405D02*
X006777Y013401D01*
X006771Y013395D01*
X006771Y012908D01*
X007022Y012657D01*
X008545Y012656D01*
X011034Y010567D02*
X010488Y010021D01*
X008222Y008780D02*
X008222Y007927D01*
X007550Y007255D01*
X003400Y011699D02*
X003396Y013688D01*
D40*
X004263Y013260D02*
X004273Y013247D01*
X004263Y013260D02*
X004263Y011557D01*
X004613Y011206D01*
X004913Y011206D01*
X004913Y011462D02*
X005317Y011462D01*
X005321Y011458D01*
X005277Y011826D02*
X005277Y013185D01*
X005166Y013296D01*
X006889Y011234D02*
X007162Y011234D01*
X008545Y012656D02*
X008555Y012682D01*
X010558Y012682D01*
X010602Y012638D01*
X008758Y009208D02*
X008908Y009089D01*
X008528Y009087D01*
X008222Y008780D01*
X009715Y006782D02*
X009715Y006498D01*
X009863Y006351D01*
X009863Y005939D01*
X009666Y005939D02*
X009630Y005939D01*
X009281Y006288D01*
X009037Y006288D01*
X008897Y006238D01*
X008455Y006168D02*
X008455Y005788D01*
X008461Y005782D01*
X008461Y005088D01*
X008772Y004777D01*
X009666Y004777D01*
X009863Y004777D02*
X009863Y004500D01*
X009761Y004398D01*
X009376Y005058D02*
X009380Y005063D01*
X009376Y005058D02*
X008946Y005058D01*
X009120Y005260D02*
X008981Y005398D01*
X009120Y005260D02*
X009380Y005260D01*
X009380Y005457D01*
X009380Y005653D02*
X009246Y005788D01*
X008967Y005788D01*
X009380Y005654D02*
X009380Y005653D01*
X008455Y006168D02*
X008385Y006238D01*
X008381Y006242D01*
X006922Y005992D02*
X006917Y005996D01*
X006086Y005996D01*
X006086Y006508D02*
X006498Y006508D01*
X006644Y006654D01*
X005721Y007128D02*
X005721Y007530D01*
X005723Y007532D01*
X005573Y007682D01*
X005518Y007736D01*
X005428Y007827D01*
X005427Y007828D01*
X005427Y008461D01*
X005265Y008623D01*
X004464Y008623D01*
X003741Y007900D01*
X003680Y007900D01*
X004320Y007546D02*
X004902Y008128D01*
X004831Y008858D02*
X004646Y009043D01*
X004646Y010427D01*
X004913Y010694D01*
X005277Y010330D02*
X005011Y010064D01*
X005008Y009268D01*
X005071Y008858D02*
X004831Y008858D01*
X005071Y008858D02*
X005518Y008858D01*
X005984Y008392D01*
X005984Y008148D01*
X005986Y008140D01*
X005990Y008134D01*
X005996Y008130D01*
X006004Y008128D01*
X005465Y007459D02*
X005472Y007437D01*
X005465Y007459D02*
X005465Y007128D01*
X004954Y007128D02*
X004956Y007066D01*
X004589Y006831D02*
X004589Y006764D01*
X004589Y006831D02*
X004320Y007100D01*
X004320Y007546D01*
X003684Y006990D02*
X004166Y006508D01*
X004589Y006508D01*
X004588Y006250D02*
X004149Y006250D01*
X003755Y006250D01*
X003684Y006321D01*
X003727Y006250D02*
X003727Y005866D01*
X003888Y005705D01*
X004208Y005705D01*
X004254Y005659D01*
X003571Y005568D02*
X003481Y005568D01*
X003171Y003128D02*
X002961Y003128D01*
X002861Y003028D01*
X002861Y002603D01*
X002849Y002591D01*
X003617Y002591D02*
X003873Y002591D01*
X007461Y002277D02*
X007523Y002216D01*
X010531Y004728D02*
X010541Y004718D01*
X010551Y004718D02*
X010531Y004728D01*
X011617Y005248D02*
X011617Y005254D01*
X011617Y005248D02*
X011611Y005352D01*
X010256Y005939D02*
X010256Y006469D01*
X010227Y006498D01*
X003461Y010106D02*
X003457Y010102D01*
D41*
X003481Y005568D03*
X002331Y003538D03*
X006451Y005438D03*
X007611Y004798D03*
X007051Y004008D03*
X007051Y003188D03*
X007761Y003088D03*
X008946Y005058D03*
X008981Y005398D03*
X009761Y004398D03*
X010251Y003728D03*
X010531Y004728D03*
X011051Y004798D03*
X011101Y005618D03*
X008371Y007038D03*
X010131Y009278D03*
D42*
X011034Y008688D02*
X011617Y008105D01*
X011617Y006092D01*
X011617Y005248D01*
X011105Y005248D02*
X011105Y005582D01*
X011101Y005618D01*
X011034Y008688D02*
X011034Y010567D01*
X007551Y007253D02*
X007550Y007255D01*
X007551Y007253D02*
X007551Y006138D01*
X007551Y006058D01*
X006931Y005438D01*
X006451Y005438D01*
X007611Y004798D02*
X005106Y004798D01*
X004265Y005640D01*
X004254Y005659D01*
X003371Y003538D02*
X002331Y003538D01*
X003371Y003538D02*
X007311Y003538D01*
X007761Y003088D01*
X003873Y003036D02*
X003873Y002591D01*
X003873Y003036D02*
X003371Y003538D01*
D43*
X003873Y002591D02*
X004246Y002218D01*
X005781Y002218D01*
X006921Y001078D01*
X007551Y001078D01*
X007741Y001268D01*
X007741Y001518D01*
X008431Y002208D01*
X008696Y002208D01*
X008704Y002216D01*
X003684Y006990D02*
X003606Y007068D01*
X002110Y007068D01*
X001488Y006447D01*
X001488Y004381D01*
X002331Y003538D01*
D44*
X006791Y008780D02*
X008222Y008780D01*
X007909Y009551D02*
X007796Y009663D01*
X006712Y009663D01*
X006045Y010330D01*
X005533Y010330D02*
X005533Y010038D01*
X006791Y008780D01*
X006791Y011206D02*
X006889Y011234D01*
X005786Y011829D02*
X005768Y011847D01*
D45*
X010542Y005457D02*
X011007Y005457D01*
X010542Y005457D02*
X010542Y005260D01*
M02*
